<?xml version="1.0" standalone="no"?>
<!DOCTYPE svg PUBLIC "-//W3C//DTD SVG 20010904//EN"
 "http://www.w3.org/TR/2001/REC-SVG-20010904/DTD/svg10.dtd">
<svg version="1.0" xmlns="http://www.w3.org/2000/svg"
 width="17.280000pt" height="17.280000pt" viewBox="0 0 17.280000 17.280000"
 preserveAspectRatio="xMidYMid meet">
<metadata>
Created by potrace 1.16, written by Peter Selinger 2001-2019
</metadata>
<g transform="translate(0.000000,17.280000) scale(0.000741,-0.000751)"
fill="#000000" stroke="none">
<path d="M11040 22179 c-1478 -86 -2874 -455 -4170 -1104 -2672 -1337 -4664
-3744 -5475 -6614 -197 -698 -314 -1379 -377 -2191 -17 -223 -17 -1178 0
-1400 79 -1019 233 -1797 532 -2690 471 -1410 1230 -2694 2245 -3800 197 -215
604 -613 817 -798 1071 -936 2265 -1627 3592 -2078 1515 -515 3142 -679 4756
-478 2003 249 3893 1070 5455 2369 457 380 886 803 1276 1255 1433 1667 2316
3754 2513 5940 32 354 40 549 40 980 0 540 -18 846 -80 1340 -523 4190 -3517
7690 -7584 8867 -706 204 -1382 325 -2170 389 -230 19 -1127 27 -1370 13z
m1360 -203 c513 -42 1005 -113 1455 -212 1736 -382 3311 -1180 4665 -2365 201
-176 712 -682 882 -874 982 -1109 1704 -2363 2151 -3740 269 -827 423 -1645
489 -2595 16 -232 16 -1004 0 -1240 -72 -1057 -262 -1983 -595 -2910 -837
-2323 -2475 -4280 -4619 -5518 -1299 -750 -2745 -1208 -4253 -1347 -597 -54
-1294 -54 -1905 1 -2103 189 -4093 1015 -5727 2376 -1118 931 -2056 2122
-2692 3423 -627 1280 -974 2625 -1051 4070 -13 240 -13 814 0 1050 59 1097
274 2137 650 3140 768 2047 2175 3814 4005 5029 1226 815 2584 1351 4037 1596
343 58 776 106 1168 130 230 13 1112 4 1340 -14z"/>
<path d="M14557 21365 c-101 -35 -142 -132 -101 -234 22 -56 51 -71 167 -87
190 -26 363 -80 472 -146 84 -51 155 -109 187 -154 32 -45 87 -75 177 -96 42
-9 57 -9 94 6 25 9 52 25 62 36 17 19 16 22 -26 87 -198 306 -457 517 -718
584 -89 23 -256 25 -314 4z m321 -197 c160 -56 255 -112 361 -212 62 -60 151
-171 151 -190 0 -5 -26 15 -57 45 -82 77 -148 123 -260 180 -109 56 -247 103
-349 119 -38 6 -79 13 -91 16 -45 9 -18 66 37 77 45 9 119 -3 208 -35z"/>
<path d="M11658 21281 c-21 -11 -56 -35 -78 -54 -23 -19 -68 -49 -102 -67 -86
-46 -115 -41 -258 49 -126 79 -130 80 -207 35 -23 -13 -97 -68 -164 -121 -115
-91 -121 -97 -115 -126 3 -16 6 -67 6 -112 l0 -82 103 -6 c124 -6 239 -31 262
-57 16 -18 16 -20 -15 -39 -31 -19 -212 -57 -295 -63 l-40 -3 3 -65 c4 -74 15
-95 86 -163 58 -55 194 -125 296 -152 99 -26 345 -32 451 -11 173 35 286 113
352 246 41 81 52 132 42 205 -8 69 -61 132 -137 165 -69 30 -182 33 -250 7
-56 -22 -115 -85 -124 -132 -12 -64 43 -123 134 -144 62 -13 105 2 163 60 50
49 83 61 107 37 24 -24 14 -65 -25 -98 -89 -79 -276 -132 -463 -133 -157 -1
-269 33 -332 100 l-27 28 59 23 c143 56 172 170 68 269 -52 50 -121 76 -215
81 -46 2 -83 8 -83 12 0 15 43 61 71 76 35 18 108 8 205 -28 42 -16 82 -22
139 -23 75 0 86 3 167 43 106 53 131 53 283 -2 82 -30 109 -36 153 -32 80 7
123 45 133 115 3 21 -1 26 -26 31 -39 9 -93 37 -185 99 -41 28 -82 51 -90 51
-8 -1 -32 -9 -52 -19z"/>
<path d="M12670 21166 l-174 -52 -13 -84 c-15 -96 -13 -110 19 -110 36 0 138
-32 132 -41 -3 -5 -13 -9 -22 -9 -76 0 -165 -67 -177 -133 -11 -56 2 -87 53
-137 72 -69 150 -86 228 -51 51 23 64 62 40 110 -12 23 -25 32 -54 36 -57 10
-59 12 -27 20 37 10 127 -8 159 -32 56 -41 78 -115 55 -182 -15 -44 -78 -71
-163 -71 -81 0 -140 21 -200 70 -55 46 -101 53 -131 20 -14 -16 -17 -30 -12
-73 17 -166 132 -267 302 -267 126 1 194 53 268 207 37 79 41 92 45 190 l5
106 57 -6 c31 -4 95 -20 142 -37 104 -36 320 -140 325 -156 10 -32 -161 -52
-292 -36 -44 6 -81 10 -82 9 -1 -2 -6 -31 -12 -66 l-10 -64 34 -38 c18 -21 49
-71 68 -113 41 -88 67 -106 152 -106 67 0 121 25 163 75 37 45 46 78 72 245
11 74 25 143 30 152 6 10 10 31 10 47 0 61 -127 138 -335 204 -60 20 -138 41
-173 48 l-62 13 -78 -38 -79 -38 -49 36 c-63 47 -62 46 -83 82 -13 20 -46 45
-101 73 -93 49 -95 66 -7 66 45 0 66 -8 152 -56 55 -31 115 -61 134 -67 50
-17 126 -14 211 8 101 27 140 26 181 -5 94 -69 253 -126 311 -112 39 10 77 47
84 82 5 27 2 32 -28 43 -19 6 -76 50 -128 98 -52 47 -105 90 -116 96 -18 8
-44 0 -145 -45 -68 -30 -134 -58 -147 -62 -47 -14 -82 6 -187 106 -90 86 -109
99 -137 98 -18 -1 -112 -24 -208 -53z"/>
<path d="M10033 21140 c-96 -34 -148 -84 -184 -177 -41 -108 -24 -360 38 -558
67 -213 162 -305 301 -292 143 12 221 102 241 276 17 150 -37 288 -131 337
-42 22 -126 18 -178 -8 -54 -28 -80 -73 -80 -140 0 -38 6 -54 30 -82 60 -68
134 -79 235 -36 58 25 71 7 25 -31 -72 -61 -191 -76 -270 -36 -63 31 -105 91
-124 176 -32 139 -18 218 48 279 60 56 109 68 207 52 43 -7 91 -9 108 -5 37 8
93 70 108 119 11 34 10 34 -25 41 -40 7 -107 39 -117 55 -3 6 -24 19 -45 30
-49 25 -118 25 -187 0z"/>
<path d="M9130 20941 c-21 -22 -64 -92 -97 -156 l-60 -117 40 -127 c22 -69 41
-127 41 -128 1 -1 40 9 86 23 116 33 245 42 288 20 119 -62 27 -208 -202 -321
-192 -95 -366 -125 -464 -81 -23 10 -42 22 -42 25 0 4 20 27 45 51 61 60 74
103 48 162 -49 110 -196 146 -364 90 -84 -28 -107 -13 -77 53 23 50 71 69 183
71 110 2 139 10 173 46 20 23 42 76 42 104 0 6 -22 14 -48 16 -27 3 -66 14
-88 26 -98 52 -127 64 -150 58 -49 -13 -93 -66 -156 -191 l-63 -124 41 -123
c46 -140 34 -132 160 -99 61 16 104 21 170 19 81 -3 89 -5 89 -23 0 -27 -82
-75 -218 -128 -109 -42 -109 -42 -103 -71 18 -88 82 -141 226 -187 284 -89
749 51 888 268 59 92 80 250 46 350 -57 166 -195 223 -397 163 -67 -20 -80
-21 -92 -9 -12 12 -12 20 4 54 24 55 55 67 186 75 123 7 166 23 190 70 8 16
15 44 15 63 0 34 0 35 -53 39 -39 3 -69 14 -113 41 -82 51 -124 51 -174 -2z"/>
<path d="M14375 20806 c-60 -18 -136 -41 -167 -51 l-57 -18 -37 -104 c-22 -61
-33 -107 -28 -112 5 -5 110 -46 234 -92 370 -136 658 -294 750 -410 45 -57 50
-87 19 -115 -18 -16 -36 -19 -123 -18 -211 3 -579 117 -795 248 -92 56 -123
141 -49 134 26 -2 41 -14 76 -61 51 -68 76 -82 157 -91 71 -7 122 13 143 57
12 25 11 33 -10 75 -47 94 -184 159 -318 150 -124 -9 -180 -65 -180 -179 0
-168 85 -287 280 -388 262 -136 596 -170 797 -81 125 55 182 173 134 275 -73
153 -216 246 -671 435 -240 100 -290 127 -290 160 0 21 69 60 107 60 32 0 98
-39 181 -107 31 -24 68 -51 84 -59 49 -25 141 -36 213 -24 96 15 128 3 222
-82 140 -128 242 -151 311 -72 l33 39 -28 20 c-41 29 -70 62 -116 130 -64 96
-85 115 -129 115 -20 0 -59 -8 -85 -19 -62 -24 -185 -44 -221 -36 -33 7 -81
54 -142 140 -74 104 -88 115 -139 115 -25 -1 -95 -16 -156 -34z"/>
<path d="M7445 20303 c-79 -12 -158 -38 -245 -80 -80 -38 -108 -59 -177 -128
-69 -70 -90 -100 -132 -186 -28 -57 -63 -126 -78 -152 l-27 -49 42 -82 c65
-128 53 -121 152 -81 149 60 246 76 265 45 7 -11 -78 -66 -183 -119 -128 -65
-123 -53 -66 -159 47 -86 51 -91 92 -102 23 -6 59 -25 80 -44 50 -45 134 -86
176 -86 47 0 125 54 155 108 41 75 29 197 -31 316 -23 45 -15 56 42 56 43 0
71 -14 146 -75 119 -98 238 -130 311 -85 42 25 87 88 114 159 17 45 21 80 23
181 1 130 -8 166 -49 200 -22 18 -29 7 -57 -99 -29 -109 -63 -155 -150 -200
-102 -52 -136 -52 -243 3 -49 25 -99 46 -110 45 -11 0 -42 -9 -70 -18 l-50
-18 -46 43 c-86 79 -187 91 -327 38 -36 -13 -67 -23 -69 -21 -8 9 68 108 128
168 71 70 138 109 334 195 l110 48 131 4 c107 3 137 1 163 -12 39 -21 39 -41
0 -62 -29 -14 -37 -14 -99 1 -86 21 -131 10 -182 -42 -65 -69 -73 -104 -32
-152 24 -29 30 -31 92 -31 115 0 239 76 292 179 25 50 25 67 0 134 -29 78 -77
114 -185 144 -55 14 -193 24 -240 16z"/>
<path d="M11730 20144 c-58 -10 -70 -15 -90 -36 -24 -26 -27 -83 -6 -131 7
-18 36 -53 64 -79 l52 -46 -33 -24 c-64 -47 -86 -58 -159 -73 -118 -24 -313
-14 -347 19 -11 12 -8 15 20 20 101 20 169 40 195 57 16 10 43 28 60 39 38 25
58 68 49 107 -14 66 -111 132 -191 133 -51 0 -88 -27 -104 -76 -11 -32 -10
-37 14 -59 34 -32 33 -61 -5 -96 -46 -43 -93 -49 -269 -34 -119 10 -127 4
-110 -80 17 -81 60 -132 150 -178 129 -65 267 -68 486 -12 106 28 209 76 301
141 l61 44 59 -36 c43 -26 67 -34 93 -32 32 3 36 7 45 42 6 26 6 41 0 43 -6 2
-33 17 -62 33 l-52 30 16 37 c20 50 12 101 -26 157 -47 67 -132 104 -211 90z"/>
<path d="M16035 20120 c-38 -4 -108 -8 -155 -9 l-85 -1 -57 -100 -57 -100 77
-52 c91 -61 226 -190 220 -209 -9 -26 -65 -20 -164 16 -55 21 -123 50 -153 66
-30 16 -55 28 -56 26 -50 -82 -57 -101 -47 -131 6 -17 21 -89 32 -161 11 -71
26 -143 32 -159 18 -44 65 -94 112 -118 69 -35 100 -30 257 47 133 65 147 70
208 70 72 -1 104 -13 184 -73 70 -54 110 -155 75 -190 -33 -33 -102 0 -113 55
-15 73 -64 113 -138 113 -82 0 -126 -55 -111 -137 10 -54 27 -84 72 -125 59
-53 117 -72 207 -66 88 6 138 33 182 100 23 34 28 52 27 97 -1 78 -37 165 -93
224 -98 105 -215 132 -436 103 l-137 -19 -24 29 c-13 16 -32 55 -43 88 l-20
58 22 -6 c53 -15 136 -18 170 -7 120 40 109 209 -21 333 -31 30 -72 63 -89 73
-18 11 -33 23 -33 27 0 15 107 8 186 -12 147 -37 425 -194 537 -303 101 -98
173 -257 118 -257 -35 0 -80 48 -96 104 -21 70 -63 111 -138 130 -94 25 -142
4 -153 -65 -5 -27 1 -44 28 -84 60 -91 187 -155 306 -155 124 0 168 53 160
193 -4 67 -11 90 -52 172 -77 156 -202 273 -378 354 -124 58 -228 75 -363 61z"/>
<path d="M6125 19490 c-135 -18 -157 -40 -214 -211 -12 -37 -35 -87 -51 -112
-26 -42 -68 -202 -56 -214 10 -11 89 75 117 127 73 138 140 179 301 187 160 8
207 -12 290 -125 38 -51 39 -56 27 -80 -18 -33 -164 -179 -212 -212 -20 -14
-37 -27 -37 -30 1 -3 23 -35 51 -72 47 -65 51 -68 92 -68 23 0 74 -11 112 -25
88 -31 118 -31 169 -1 76 44 115 163 83 252 -8 22 -78 129 -156 238 -102 142
-141 204 -141 225 0 16 -10 41 -22 56 -35 45 -64 53 -253 69 -22 2 -67 0 -100
-4z"/>
<path d="M11185 19470 c-1576 -93 -3060 -633 -4305 -1569 -325 -243 -548 -438
-850 -741 -436 -435 -794 -882 -1104 -1374 l-54 -86 -4 98 c-3 89 -7 106 -37
166 -57 111 -97 143 -490 390 -200 126 -376 233 -390 239 -36 13 -124 -13
-179 -53 -23 -16 -67 -66 -97 -110 -64 -91 -87 -100 -105 -45 -20 62 -5 92 91
185 87 84 109 117 109 167 0 27 -36 93 -51 93 -4 0 -28 -14 -52 -30 -29 -21
-62 -34 -104 -40 -67 -9 -117 -31 -127 -55 -11 -29 -6 -141 8 -218 30 -155 22
-144 152 -225 64 -40 117 -71 118 -70 1 2 21 36 45 75 70 122 176 209 227 189
45 -17 644 -403 673 -433 l34 -36 -7 -77 c-17 -210 -191 -507 -337 -578 -60
-29 -151 -30 -197 -2 -35 21 -47 44 -57 103 -3 21 -12 37 -20 37 -19 0 -91
-89 -115 -141 -36 -80 -24 -148 38 -212 46 -48 97 -75 168 -88 108 -20 226 22
356 128 l79 64 -61 -120 c-566 -1130 -853 -2408 -826 -3681 13 -650 87 -1202
242 -1815 317 -1249 961 -2437 1831 -3380 1283 -1390 2963 -2264 4813 -2504
378 -49 500 -56 1025 -56 524 0 638 7 1015 56 2036 264 3877 1301 5165 2909
592 739 1042 1571 1338 2475 385 1175 488 2433 301 3665 -140 923 -450 1827
-907 2647 -70 126 -79 148 -55 128 36 -30 50 -31 104 -4 52 25 67 58 53 121
-13 55 -53 123 -85 144 -23 16 -26 15 -44 -1 -26 -24 -26 -89 0 -132 21 -36
44 -42 58 -17 7 13 11 10 22 -15 16 -39 7 -61 -25 -61 -19 0 -32 11 -55 47
-17 26 -30 52 -30 59 0 18 -58 64 -81 64 -18 0 -18 -2 -4 -23 14 -22 56 -139
52 -144 -2 -1 -32 46 -67 105 -583 964 -1427 1839 -2390 2477 -1122 744 -2369
1175 -3730 1290 -219 19 -857 27 -1075 15z m845 -90 c1122 -63 2140 -334 3130
-836 1414 -715 2589 -1860 3347 -3259 808 -1491 1106 -3221 847 -4915 -307
-2007 -1403 -3831 -3039 -5060 -1226 -920 -2651 -1446 -4203 -1550 -198 -13
-771 -13 -977 0 -2224 143 -4240 1195 -5634 2940 -912 1141 -1486 2525 -1650
3980 -38 333 -46 489 -46 895 1 505 25 818 101 1275 244 1483 907 2849 1927
3978 157 174 492 501 664 649 884 759 1866 1293 2958 1608 599 172 1150 262
1825 298 140 8 592 6 750 -3z"/>
<path d="M11309 19210 c-1162 -51 -2271 -351 -3274 -887 -2226 -1188 -3721
-3376 -4010 -5870 -61 -528 -64 -1143 -9 -1683 139 -1362 658 -2687 1484
-3785 1455 -1935 3705 -3063 6115 -3065 2430 -1 4687 1133 6150 3090 427 571
799 1264 1049 1951 221 608 364 1245 425 1904 47 501 38 1129 -24 1635 -223
1815 -1090 3492 -2440 4720 -1100 1000 -2432 1647 -3900 1895 -455 76 -1098
115 -1566 95z m776 -130 c1142 -76 2198 -383 3173 -922 1716 -949 3003 -2538
3566 -4403 567 -1876 384 -3906 -508 -5630 -276 -534 -596 -1006 -1007 -1486
-163 -191 -586 -612 -780 -777 -855 -726 -1783 -1228 -2827 -1528 -1260 -361
-2612 -387 -3882 -74 -1336 330 -2559 1022 -3530 1999 -1225 1232 -1980 2826
-2154 4546 -49 484 -49 1035 0 1525 148 1485 748 2911 1710 4060 1330 1589
3227 2553 5294 2689 181 12 770 12 945 1z"/>
<path d="M10345 18765 c-1609 -288 -3085 -1114 -4169 -2335 -1077 -1212 -1708
-2704 -1831 -4325 -19 -247 -22 -774 -5 -1010 69 -1013 320 -1931 770 -2820
148 -294 256 -480 426 -737 586 -886 1357 -1633 2264 -2195 645 -399 1322
-684 2079 -873 618 -154 1191 -218 1881 -207 716 11 1323 104 1992 306 346
104 834 296 1103 433 780 397 1399 847 1985 1444 1188 1210 1898 2742 2066
4459 21 217 30 865 15 1105 -112 1794 -857 3452 -2120 4718 -1092 1094 -2461
1800 -3988 2055 l-83 14 0 -31 c0 -89 58 -229 126 -305 53 -59 119 -94 224
-117 l75 -17 -70 -13 c-130 -22 -244 -82 -299 -157 l-20 -27 35 -36 c181 -187
530 -333 836 -351 l113 -6 60 -46 61 -46 -38 -3 c-66 -6 -243 19 -378 53 -193
50 -343 114 -492 213 -53 35 -85 39 -91 10 -7 -35 253 -300 414 -422 49 -36
142 -93 206 -125 l118 -58 -40 -18 c-37 -17 -130 -104 -130 -122 0 -26 68
-118 128 -175 144 -135 357 -229 611 -268 53 -9 88 -21 130 -47 31 -19 48 -32
38 -29 -10 3 -54 15 -97 26 -307 78 -667 90 -960 31 -79 -16 -85 -19 -85 -41
0 -23 5 -26 55 -32 30 -3 96 -6 147 -7 275 -3 638 -92 918 -225 320 -152 737
-430 1085 -723 157 -133 482 -460 614 -618 768 -922 1200 -1984 1286 -3160 13
-180 13 -580 0 -760 -67 -919 -364 -1822 -840 -2553 l-70 -107 0 48 c0 154
-50 429 -111 610 -94 284 -222 492 -428 697 -135 135 -237 213 -384 295 -59
32 -72 36 -93 26 -47 -21 -31 -49 91 -164 314 -296 483 -658 541 -1162 19
-165 18 -171 -19 -139 -21 17 -33 44 -48 101 -59 231 -165 403 -306 495 -37
25 -75 47 -83 50 -8 3 -26 39 -39 79 -35 110 -98 231 -158 304 -112 135 -239
202 -424 221 -59 6 -69 4 -87 -14 -11 -11 -26 -45 -33 -76 -20 -91 5 -167 90
-277 l20 -25 -62 13 c-99 22 -269 20 -347 -6 -139 -45 -153 -70 -98 -173 63
-119 211 -217 383 -253 84 -18 302 -25 385 -12 44 7 46 6 68 -29 13 -20 22
-37 20 -39 -2 -2 -30 -8 -63 -14 -219 -40 -365 -240 -430 -587 l-17 -88 22
-18 c12 -10 26 -18 32 -18 5 0 28 21 51 48 245 279 470 347 726 217 116 -58
227 -154 346 -300 l73 -90 -15 -133 -16 -133 -107 -117 c-290 -318 -641 -617
-1014 -864 l-151 -100 -68 478 c-38 264 -70 480 -71 481 -1 1 -116 -25 -256
-58 -139 -32 -257 -56 -260 -52 -14 16 -291 625 -288 632 2 5 89 87 193 185
105 97 191 179 192 184 2 6 -930 805 -950 814 -4 1 -59 -87 -121 -197 -63
-110 -119 -199 -125 -198 -24 6 -737 277 -744 283 -7 6 46 335 79 492 l5 27
-668 -6 c-367 -3 -669 -7 -671 -8 -1 -1 22 -100 52 -221 29 -120 50 -222 47
-226 -3 -3 -177 -85 -385 -182 -342 -158 -381 -173 -391 -158 -7 9 -65 106
-129 215 -65 109 -121 197 -126 195 -14 -5 -920 -809 -920 -816 0 -4 86 -67
190 -141 105 -74 190 -137 190 -142 0 -9 -369 -701 -380 -713 -5 -5 -118 19
-260 54 -138 34 -254 60 -256 57 -3 -3 -37 -207 -76 -454 -39 -246 -72 -450
-74 -452 -12 -14 -376 252 -574 419 -136 114 -496 466 -562 550 -34 43 -36 52
-52 174 l-16 129 74 91 c205 253 414 377 611 364 158 -11 297 -95 456 -275 26
-29 51 -53 57 -53 5 0 20 8 32 18 l22 18 -17 89 c-63 343 -212 546 -430 586
-33 6 -61 12 -63 14 -2 1 7 19 19 39 21 36 22 37 68 29 83 -13 301 -7 386 12
121 25 234 82 305 154 60 59 110 145 110 189 0 28 -42 55 -130 83 -78 26 -248
28 -348 6 -58 -13 -61 -13 -50 3 7 9 28 37 46 60 61 81 75 185 38 274 -19 47
-47 52 -161 34 -132 -22 -227 -70 -320 -161 -88 -88 -145 -183 -194 -321 -36
-104 -37 -106 -86 -132 -160 -84 -291 -276 -351 -511 -13 -53 -25 -97 -27 -97
-1 -1 -15 -12 -31 -26 l-28 -25 7 85 c24 304 93 567 208 796 84 167 160 269
315 422 124 123 143 146 138 167 -14 55 -67 37 -247 -84 -262 -176 -454 -400
-590 -686 -111 -235 -178 -499 -197 -775 l-7 -105 -83 132 c-456 731 -722
1515 -814 2403 -18 168 -18 842 0 1010 120 1160 543 2162 1284 3042 140 167
453 481 618 620 313 264 657 497 985 669 319 166 693 267 1008 270 51 1 117 4
147 7 50 6 55 9 55 32 0 22 -6 25 -85 41 -298 60 -668 47 -976 -35 -49 -14
-90 -23 -91 -22 -1 1 22 16 51 33 35 20 81 35 128 43 188 30 379 99 505 183
126 84 247 233 224 276 -15 27 -88 90 -126 108 l-34 16 113 56 c62 31 150 83
196 116 150 108 435 396 428 433 -6 29 -37 25 -91 -11 -143 -95 -299 -162
-492 -212 -137 -35 -301 -59 -373 -53 l-42 3 60 46 60 46 113 6 c195 11 414
75 585 169 82 45 211 139 256 187 l29 30 -27 35 c-55 73 -162 128 -291 151
l-70 12 75 17 c41 9 98 28 127 42 62 30 133 105 167 177 30 65 58 170 54 206
l-3 28 -180 -32z m100 -77 c-18 -61 -67 -150 -102 -185 -55 -55 -84 -66 -292
-113 -958 -217 -1890 -648 -2681 -1241 -886 -665 -1597 -1512 -2089 -2489
-265 -525 -444 -1011 -577 -1567 -218 -912 -250 -1934 -90 -2855 12 -70 20
-128 18 -128 -14 0 -95 66 -102 84 -22 59 -82 483 -111 791 -17 183 -23 769
-10 990 96 1630 707 3127 1780 4360 143 164 446 471 616 623 964 863 2144
1456 3398 1706 269 54 250 52 242 24z m2605 -23 c1710 -336 3271 -1316 4342
-2725 802 -1055 1296 -2309 1432 -3630 41 -401 46 -990 11 -1370 -32 -348 -93
-740 -119 -769 -9 -9 -34 -27 -57 -40 -38 -22 -41 -22 -35 -5 24 81 79 486
103 757 23 269 22 841 -1 1117 -80 954 -317 1802 -735 2638 -475 950 -1155
1776 -2007 2439 -808 629 -1781 1089 -2775 1313 -206 46 -254 65 -300 118 -30
34 -79 127 -94 181 -6 21 -5 23 22 17 15 -3 111 -21 213 -41z m-2847 -430 c32
-8 75 -24 95 -35 l37 -19 -80 -1 c-172 -1 -316 -68 -250 -116 15 -11 24 -10
54 5 20 10 60 24 89 30 65 14 202 15 202 1 0 -14 -141 -107 -229 -150 -142
-71 -304 -116 -479 -135 l-64 -7 36 50 c51 71 61 103 42 140 -19 37 -70 80
-116 99 l-34 15 68 29 c81 35 207 74 296 93 89 19 261 20 333 1z m3185 -1 c94
-19 211 -56 299 -93 l67 -29 -39 -17 c-46 -19 -91 -58 -112 -98 -17 -35 -9
-65 37 -133 18 -25 30 -48 27 -50 -7 -8 -161 14 -256 37 -158 37 -331 117
-461 213 l-55 41 75 3 c86 4 178 -12 231 -38 30 -16 39 -17 54 -6 66 48 -78
115 -250 116 l-80 1 37 20 c95 49 277 64 426 33z m-3865 -208 c46 -23 47 -36
5 -36 -146 -1 -352 -99 -333 -159 9 -29 38 -26 87 9 49 35 141 66 229 76 l63
7 -31 -39 c-104 -131 -285 -248 -493 -319 l-69 -23 35 47 c18 27 41 65 50 86
15 36 14 40 -4 64 -31 43 -108 84 -190 101 l-77 17 80 40 c106 53 247 109 337
133 96 26 255 24 311 -4z m4600 -19 c60 -20 161 -62 225 -93 l117 -56 -75 -17
c-41 -10 -94 -27 -116 -39 -56 -29 -97 -78 -88 -106 11 -36 35 -79 66 -119
l30 -37 -89 31 c-207 73 -396 199 -486 323 l-20 29 62 -7 c88 -10 181 -41 229
-76 49 -35 78 -38 87 -9 19 60 -187 158 -332 159 -55 0 -38 19 47 54 8 3 65 4
125 2 95 -2 125 -8 218 -39z m-5219 -249 c21 -5 36 -11 34 -13 -2 -2 -37 -11
-78 -19 -151 -31 -265 -93 -258 -139 6 -40 30 -41 86 -3 30 20 77 43 105 51
58 17 177 38 183 32 10 -10 -75 -104 -143 -158 -101 -80 -356 -229 -370 -216
-2 3 8 28 22 57 15 29 33 82 40 118 13 60 13 68 -3 86 -26 29 -80 48 -152 55
l-65 7 83 42 c201 103 373 137 516 100z m5754 -15 c46 -13 132 -47 190 -75
l107 -52 -65 -6 c-73 -8 -126 -28 -153 -57 -17 -19 -17 -25 -3 -87 9 -36 27
-89 42 -117 14 -28 23 -53 21 -56 -14 -14 -271 137 -375 220 -60 47 -148 145
-139 154 7 6 125 -15 184 -32 28 -8 75 -31 105 -51 56 -38 80 -37 86 2 8 54
-115 112 -318 151 -68 13 82 43 175 35 33 -3 98 -15 143 -29z m-4543 -49
c-151 -142 -305 -246 -452 -306 -76 -30 -83 -31 -243 -33 -176 -3 -258 -15
-427 -64 -54 -16 -132 -31 -173 -35 -167 -13 -349 -104 -545 -273 -61 -52 -94
-73 -140 -87 -117 -35 -194 -84 -301 -191 -56 -55 -118 -125 -138 -157 -33
-49 -43 -58 -84 -68 -77 -19 -213 -96 -284 -160 -77 -69 -169 -188 -213 -273
-27 -53 -37 -62 -105 -98 -154 -80 -294 -227 -386 -404 -29 -56 -58 -98 -71
-104 -36 -17 -172 -151 -218 -216 -54 -75 -104 -177 -141 -280 -16 -46 -37
-86 -48 -94 -12 -8 -51 -45 -88 -82 -110 -113 -184 -257 -234 -458 -19 -77
-30 -101 -58 -130 -109 -114 -191 -322 -214 -542 -9 -84 -11 -89 -61 -150 -63
-79 -125 -203 -152 -306 -24 -93 -35 -289 -21 -383 l10 -65 -54 -110 c-81
-164 -97 -235 -98 -435 -1 -99 4 -195 13 -240 l13 -76 -36 -104 c-74 -220 -69
-465 17 -729 22 -65 23 -77 11 -120 -36 -142 -26 -341 31 -570 18 -75 38 -173
45 -219 12 -91 34 -161 74 -240 14 -28 23 -52 19 -52 -13 1 -95 20 -150 36
l-53 15 0 119 c0 190 -48 391 -140 587 l-38 82 31 88 c53 153 50 391 -8 620
l-25 97 24 60 c14 34 32 99 40 145 20 106 21 343 1 471 l-14 95 39 80 c22 44
51 121 66 170 25 82 28 107 31 284 3 190 3 194 28 227 97 127 162 339 166 543
2 82 5 93 27 113 42 39 111 143 146 220 47 103 68 196 71 316 l2 103 54 43
c161 127 273 321 295 514 l6 60 80 63 c43 34 106 95 139 136 66 83 140 226
163 318 8 33 19 61 24 63 43 14 150 91 212 152 88 87 146 172 190 279 l32 76
97 47 c171 83 295 207 377 374 l45 91 67 17 c172 41 329 153 424 301 l45 70
84 23 c111 30 268 109 349 173 36 30 102 69 151 90 136 59 237 112 335 176 57
38 110 65 145 73 76 18 244 77 300 105 42 22 63 25 210 29 171 4 268 18 423
60 93 26 238 80 291 109 57 31 49 16 -30 -59z m3204 -23 c166 -56 327 -83 510
-88 147 -3 167 -6 210 -28 56 -28 224 -87 300 -105 33 -8 84 -33 133 -66 88
-59 234 -136 356 -188 44 -19 108 -57 143 -86 79 -63 236 -142 348 -173 l84
-24 48 -74 c95 -144 253 -255 422 -296 l68 -16 34 -74 c85 -184 231 -327 418
-408 l64 -28 32 -76 c44 -108 103 -194 191 -281 62 -61 170 -138 212 -152 5
-2 16 -30 24 -63 43 -166 163 -347 303 -456 61 -47 81 -68 81 -86 0 -45 32
-178 57 -237 49 -118 133 -226 242 -311 l53 -43 3 -108 c2 -68 11 -138 24
-187 26 -100 98 -238 160 -308 l49 -55 7 -99 c14 -208 65 -381 151 -510 l46
-70 -5 -90 c-10 -205 23 -387 98 -540 l44 -90 -15 -95 c-17 -114 -19 -348 -4
-445 6 -38 23 -101 37 -140 14 -38 25 -81 25 -95 1 -14 -12 -77 -28 -140 -26
-105 -28 -131 -29 -300 0 -182 1 -187 31 -274 l31 -89 -38 -82 c-94 -199 -139
-391 -139 -586 l0 -118 -37 -10 c-91 -24 -161 -41 -166 -41 -3 0 9 33 28 73
37 81 60 163 70 252 4 33 22 119 40 190 56 221 66 407 30 562 -12 51 -11 61
11 126 28 82 59 240 69 349 11 132 -28 356 -78 446 -11 18 -10 41 6 130 14 83
17 138 14 247 -6 175 -28 263 -101 410 l-55 110 10 75 c15 99 5 276 -20 370
-27 99 -98 240 -160 318 -44 53 -51 68 -51 106 0 174 -96 439 -206 564 -39 45
-49 65 -69 146 -60 235 -157 405 -292 510 -37 29 -55 52 -63 79 -20 67 -78
198 -121 270 -47 80 -171 214 -233 253 -33 21 -51 45 -84 108 -93 182 -242
339 -390 413 -60 30 -77 44 -94 77 -113 221 -287 380 -494 450 -57 20 -66 27
-121 101 -120 162 -263 272 -412 319 -52 17 -84 36 -139 83 -201 174 -384 266
-552 279 -41 4 -119 19 -173 35 -169 49 -251 61 -427 64 -161 2 -167 2 -245
34 -93 38 -204 103 -295 174 -86 67 -220 187 -220 197 0 5 33 -6 73 -25 39
-18 114 -47 166 -64z m-5056 -165 c-125 -50 -201 -117 -173 -151 19 -23 35
-19 87 21 27 20 67 45 91 55 42 18 149 49 171 49 20 0 12 -36 -25 -110 -46
-91 -140 -188 -244 -253 -75 -46 -265 -126 -275 -115 -3 3 1 31 9 62 8 31 18
84 22 116 l7 60 -59 0 c-56 0 -168 -14 -208 -26 -94 -29 259 197 401 256 86
36 204 69 248 69 22 1 9 -8 -52 -33z m6780 15 c107 -28 205 -71 327 -143 106
-63 244 -158 238 -163 -2 -1 -37 3 -78 11 -41 7 -103 13 -137 14 l-63 0 0 -32
c0 -30 19 -129 36 -187 7 -22 5 -23 -22 -17 -137 35 -327 147 -414 244 -76 85
-145 232 -109 232 22 0 129 -31 171 -49 24 -10 64 -35 91 -55 52 -40 68 -44
87 -21 28 34 -48 101 -173 151 -94 39 -73 45 46 15z m-5493 -252 c24 -6 65
-20 90 -31 l45 -22 -91 -7 c-156 -12 -264 -55 -264 -104 0 -37 25 -41 83 -12
29 14 79 31 111 36 72 13 186 14 186 2 0 -4 -18 -29 -41 -54 -50 -58 -181
-145 -277 -186 -63 -26 -241 -81 -265 -81 -5 0 7 19 26 43 38 46 77 119 97
181 l12 38 -48 49 c-26 27 -72 61 -101 76 -29 16 -53 31 -53 34 0 9 149 40
234 49 77 9 185 4 256 -11z m4404 11 c102 -10 246 -40 246 -49 0 -4 -21 -17
-46 -29 -25 -13 -70 -46 -100 -74 -49 -47 -54 -55 -48 -82 10 -50 53 -132 95
-186 22 -28 36 -50 32 -50 -5 0 -48 11 -98 24 -127 35 -225 78 -320 140 -78
53 -165 134 -165 156 0 13 96 13 180 0 36 -6 88 -22 117 -37 60 -30 86 -26 81
14 -6 52 -145 102 -286 103 -37 0 -61 4 -57 9 10 17 115 51 183 60 93 12 87
12 186 1z m-4992 -101 c60 -13 170 -67 162 -80 -3 -5 -22 -9 -42 -9 -81 0
-214 -46 -275 -94 -25 -19 -19 -60 9 -64 12 -2 39 9 59 23 21 14 62 32 91 41
49 14 195 35 202 29 7 -6 -38 -84 -77 -132 -88 -111 -281 -216 -468 -253 -32
-6 -65 -13 -75 -16 -13 -4 -9 11 19 75 19 44 37 96 40 114 5 33 4 34 -53 59
-62 28 -145 48 -194 48 -17 0 -30 4 -30 9 0 5 36 37 80 70 207 156 387 215
552 180z m5607 -23 c40 -14 101 -41 135 -60 74 -41 226 -154 226 -167 0 -5
-17 -9 -37 -9 -83 0 -243 -60 -243 -90 0 -23 33 -117 59 -167 l21 -42 -38 6
c-199 31 -430 148 -523 266 -39 48 -84 126 -77 132 7 5 155 -16 204 -30 28 -8
68 -26 89 -40 42 -29 78 -30 83 -2 11 54 -164 136 -290 137 -20 0 -39 4 -42 9
-8 12 89 62 149 78 72 18 195 9 284 -21z m-6731 -58 c-50 -223 -217 -408 -430
-474 -32 -10 -60 -16 -62 -13 -2 2 0 24 4 49 5 25 9 62 10 82 0 36 -1 37 -45
44 -47 7 -155 -2 -206 -16 l-29 -9 20 29 c43 61 213 195 320 254 54 29 189 86
205 86 2 0 -23 -26 -56 -59 -50 -49 -60 -63 -57 -87 5 -47 33 -42 91 18 50 52
192 137 228 138 15 0 16 -6 7 -42z m7685 0 c49 -26 101 -63 134 -96 58 -59 86
-65 91 -19 3 23 -8 38 -58 87 -33 33 -58 60 -55 60 16 0 150 -56 205 -86 107
-59 277 -193 320 -254 l20 -29 -29 9 c-51 14 -159 23 -206 16 -44 -7 -45 -8
-45 -44 1 -20 5 -57 10 -82 4 -25 6 -47 4 -49 -2 -3 -30 4 -62 13 -223 71
-377 243 -436 489 -9 38 9 36 107 -15z m-7108 -257 c28 -7 26 -8 -37 -30 -126
-42 -236 -131 -211 -170 16 -26 39 -24 69 5 47 43 99 73 178 99 102 34 109 34
91 -9 -61 -146 -192 -289 -326 -355 -84 -41 -211 -76 -217 -59 -2 5 1 32 8 61
6 29 13 62 15 73 4 18 -2 23 -39 33 -24 6 -75 14 -114 17 l-71 7 21 29 c100
142 261 259 403 294 54 13 181 16 230 5z m6714 -21 c115 -41 266 -160 349
-277 l21 -30 -71 -7 c-70 -6 -158 -25 -158 -33 0 -2 7 -38 16 -79 8 -42 14
-77 12 -79 -11 -9 -147 31 -214 64 -134 66 -263 204 -323 344 -23 54 -21 55
60 31 77 -23 161 -68 195 -103 32 -34 55 -39 74 -16 33 39 -53 115 -190 167
-78 31 -82 33 -55 40 58 13 217 1 284 -22z m-7979 -128 c-54 -36 -148 -134
-165 -172 -15 -32 -15 -42 -5 -55 22 -27 47 -17 74 29 31 53 110 124 178 161
l50 27 -7 -33 c-24 -113 -75 -221 -150 -320 -51 -65 -108 -113 -207 -174 -73
-46 -101 -55 -93 -32 3 6 8 45 13 85 8 69 8 72 -12 72 -46 -1 -175 -29 -250
-54 -43 -15 -80 -25 -82 -24 -7 8 117 160 191 234 125 125 268 214 410 255 76
22 86 22 55 1z m9020 -2 c125 -33 278 -129 405 -255 71 -71 197 -225 190 -233
-1 -1 -38 9 -81 24 -44 14 -115 33 -158 40 -105 19 -110 14 -101 -83 4 -41 3
-73 -2 -73 -5 0 -36 16 -69 36 -149 89 -238 183 -304 319 -36 74 -76 202 -67
211 2 2 37 -17 78 -44 76 -50 127 -100 154 -152 17 -33 45 -39 65 -15 27 33
-49 135 -165 223 -32 24 -33 24 55 2z m-6525 -11 c-22 -5 -90 -18 -151 -29
-363 -66 -704 -220 -1159 -523 -300 -201 -580 -431 -847 -700 -938 -942 -1501
-2178 -1598 -3512 -13 -180 -13 -600 0 -780 40 -544 150 -1050 342 -1563 27
-74 48 -135 46 -138 -3 -2 -29 13 -58 34 -50 35 -55 43 -102 157 -200 484
-325 1027 -369 1595 -15 198 -15 663 0 850 86 1062 452 2033 1083 2875 445
593 1048 1122 1685 1480 221 124 513 216 790 250 124 15 404 18 338 4z m4395
-17 c376 -64 601 -159 1000 -420 1235 -807 2096 -2078 2379 -3512 37 -187 46
-246 72 -460 26 -213 37 -792 20 -1032 -39 -533 -135 -986 -308 -1453 -92
-247 -112 -286 -170 -323 -27 -18 -52 -32 -55 -32 -3 0 14 51 38 113 186 469
313 1048 354 1607 21 289 11 704 -25 1020 -203 1763 -1252 3327 -2817 4199
-245 137 -493 229 -740 276 -227 44 -227 44 -38 40 111 -2 217 -11 290 -23z
m-6316 -268 c-64 -38 -151 -117 -160 -147 -6 -21 12 -47 32 -47 8 0 40 26 72
58 38 39 82 70 134 95 42 20 81 37 87 37 16 0 -6 -67 -57 -170 -63 -129 -177
-247 -301 -308 -107 -54 -122 -55 -110 -4 5 20 9 51 9 69 0 29 -4 33 -34 39
-19 3 -75 4 -124 3 l-90 -4 14 27 c31 61 140 192 197 238 111 90 246 147 351
149 l40 1 -60 -36z m7884 21 c131 -31 266 -121 365 -245 34 -43 72 -96 84
-117 l21 -38 -89 4 c-50 1 -106 0 -126 -4 l-36 -6 7 -70 c5 -55 3 -69 -8 -69
-7 0 -51 19 -97 41 -153 76 -288 236 -350 416 -10 31 -19 58 -19 60 0 27 170
-68 232 -129 61 -61 77 -68 98 -43 11 13 11 20 0 39 -20 38 -90 102 -154 140
l-60 36 35 0 c19 0 62 -7 97 -15z m-7534 -196 c-65 -45 -156 -110 -202 -145
-45 -35 -85 -64 -88 -64 -3 0 10 18 28 39 18 22 51 72 73 112 l40 73 76 13
c42 7 98 21 125 32 27 10 53 19 58 20 5 1 -44 -36 -110 -80z m7054 61 c29 -11
88 -26 130 -33 l77 -13 38 -70 c21 -38 51 -86 67 -106 17 -20 30 -39 30 -42 0
-3 -37 23 -82 58 -46 35 -137 100 -202 145 -66 44 -117 81 -115 81 2 0 28 -9
57 -20z m-8368 -118 c0 -5 -9 -43 -20 -85 -34 -133 -114 -271 -213 -368 -38
-38 -135 -109 -147 -109 -3 0 -3 32 -2 71 l4 72 -59 -6 c-69 -7 -174 -42 -262
-86 -34 -18 -65 -31 -66 -29 -8 8 94 163 152 232 76 91 209 193 328 252 50 24
95 44 99 44 5 0 -14 -24 -42 -54 -65 -68 -91 -119 -72 -141 22 -26 47 -17 73
28 31 52 74 93 152 146 61 41 75 47 75 33z m9793 -18 c71 -45 146 -114 173
-160 27 -45 52 -56 73 -30 18 22 -9 77 -70 141 -29 30 -49 55 -45 55 3 0 35
-13 70 -29 142 -64 285 -174 376 -290 60 -76 142 -203 135 -209 -2 -2 -32 11
-66 29 -88 44 -193 79 -262 86 l-59 6 4 -72 c1 -39 1 -71 -2 -71 -3 0 -29 16
-58 35 -122 83 -232 229 -283 378 -30 88 -45 157 -35 157 4 0 25 -12 49 -26z
m-9338 -212 c-6 -4 -36 -27 -67 -51 -63 -47 -120 -124 -116 -156 2 -13 12 -21
30 -23 21 -3 30 3 42 25 20 39 80 94 155 142 85 54 93 54 76 -6 -51 -192 -178
-363 -344 -465 l-61 -38 7 90 6 90 -29 1 c-56 3 -118 -3 -168 -16 -28 -7 -53
-12 -54 -10 -6 6 82 137 127 188 90 105 203 184 310 218 59 19 101 24 86 11z
m8918 -12 c145 -45 314 -194 412 -364 25 -42 26 -49 10 -43 -49 20 -141 32
-209 28 l-29 -1 5 -85 c3 -47 2 -85 -2 -85 -23 0 -166 109 -215 163 -87 95
-161 232 -189 350 -9 36 3 35 78 -10 73 -44 142 -106 162 -145 17 -34 59 -39
69 -8 13 40 -61 132 -153 191 -56 35 -35 39 61 9z m-8598 -122 c-44 -40 -122
-113 -174 -163 -86 -82 -92 -86 -67 -45 32 52 86 165 86 179 0 5 26 17 57 26
31 9 82 30 113 45 30 16 57 29 60 29 3 0 -31 -32 -75 -71z m8275 2 l55 -17 45
-90 c25 -49 56 -104 69 -123 14 -19 -18 6 -70 55 -52 50 -132 126 -179 169
l-85 77 55 -27 c30 -15 80 -35 110 -44z m-9529 -304 c-39 -165 -114 -291 -243
-411 l-73 -68 -14 77 c-10 59 -17 76 -30 76 -35 0 -184 -60 -246 -98 -36 -23
-65 -39 -65 -36 0 14 77 156 118 218 88 133 221 255 357 328 l60 32 -46 -55
c-58 -67 -81 -112 -77 -147 2 -21 8 -27 27 -27 19 0 30 11 48 45 27 51 75 104
148 163 l50 40 3 -26 c2 -14 -6 -64 -17 -111z m10788 49 c38 -36 79 -86 93
-112 19 -38 30 -48 49 -48 19 0 25 6 27 27 4 34 -16 72 -74 143 l-45 56 43
-22 c177 -90 331 -249 439 -452 27 -51 49 -95 49 -99 0 -4 -30 12 -67 34 -65
40 -210 98 -245 98 -12 0 -19 -17 -30 -77 l-14 -77 -78 74 c-93 88 -163 190
-205 298 -28 75 -51 171 -51 219 0 21 3 22 20 13 12 -6 52 -40 89 -75z
m-10388 -159 c-71 -74 -116 -159 -100 -188 17 -31 51 -18 73 27 26 56 75 114
139 163 29 23 57 42 60 42 28 0 -20 -190 -77 -305 -54 -109 -114 -186 -198
-256 l-63 -52 -3 34 c-1 19 -5 54 -8 78 l-6 44 -59 -6 c-32 -4 -83 -15 -114
-26 -65 -23 -65 -21 -27 69 76 176 208 327 352 399 45 22 85 41 88 41 3 0 -23
-29 -57 -64z m9951 12 c125 -66 259 -225 328 -385 16 -40 30 -76 30 -82 0 -5
-26 -1 -57 10 -32 11 -83 22 -114 26 l-56 6 -6 -33 c-4 -18 -7 -52 -7 -77 0
-40 -2 -43 -20 -33 -10 6 -46 35 -80 66 -85 80 -166 206 -206 322 -32 93 -52
197 -40 209 8 9 113 -75 152 -122 18 -23 40 -58 49 -78 17 -42 28 -50 55 -42
47 15 10 106 -83 203 -68 70 -60 71 55 10z m-422 -49 c30 -20 73 -46 96 -57
37 -19 43 -28 68 -99 15 -43 38 -97 51 -120 13 -24 22 -43 20 -43 -2 0 -41 46
-87 103 -46 56 -117 140 -158 186 -41 47 -68 80 -60 75 8 -5 40 -25 70 -45z
m-9183 -66 c-51 -60 -119 -141 -151 -180 -32 -40 -60 -73 -61 -73 -2 0 7 19
20 43 13 23 35 77 50 119 l27 78 72 39 c39 21 82 48 96 60 53 44 37 17 -53
-86z m-1140 -340 c-10 -164 -44 -265 -132 -388 -41 -58 -140 -155 -157 -155
-4 0 -12 19 -19 42 -6 24 -20 66 -31 96 l-20 52 -59 -31 c-33 -18 -91 -58
-129 -90 l-70 -59 21 53 c37 94 112 229 169 306 60 80 175 193 231 225 l34 20
-31 -40 c-62 -78 -92 -164 -67 -189 27 -27 47 -14 67 44 19 53 45 90 115 164
79 84 85 80 78 -50z m11560 55 c69 -72 111 -134 119 -174 11 -60 74 -70 74
-13 0 39 -23 91 -66 151 l-35 50 32 -19 c60 -34 187 -163 247 -251 61 -89 117
-193 152 -283 l20 -50 -70 59 c-39 33 -97 74 -130 91 l-58 31 -20 -52 c-11
-30 -25 -72 -31 -96 -7 -23 -16 -42 -22 -42 -6 0 -45 35 -88 78 -130 130 -201
306 -201 497 0 54 4 75 13 75 7 0 36 -24 64 -52z m-10810 -220 c-46 -68 -105
-158 -131 -200 -27 -43 -49 -78 -51 -78 -1 0 9 37 22 81 12 45 23 94 23 109 0
23 12 37 68 78 37 28 85 69 107 91 21 23 41 41 43 41 1 0 -35 -55 -81 -122z
m10076 -27 c37 -25 47 -38 47 -60 0 -16 11 -65 23 -110 13 -44 23 -81 22 -81
-1 0 -29 42 -60 93 -32 50 -92 142 -134 202 l-75 110 65 -61 c35 -33 85 -75
112 -93z m-10438 54 c-75 -92 -113 -180 -91 -210 14 -20 46 -17 56 5 47 103
71 138 129 196 l66 67 3 -34 c2 -19 -2 -70 -8 -114 -26 -176 -94 -322 -211
-448 -68 -75 -69 -75 -88 8 -7 28 -20 64 -29 82 l-17 32 -54 -19 c-29 -11 -69
-29 -88 -40 -20 -11 -38 -19 -41 -16 -2 3 10 49 29 102 62 179 174 327 310
407 35 20 67 37 71 37 5 0 -12 -25 -37 -55z m10696 -104 c16 -25 34 -62 40
-84 9 -34 13 -38 37 -35 21 2 28 9 30 31 5 38 -36 121 -94 191 -52 65 -46 67
45 13 102 -61 189 -161 254 -293 38 -77 82 -202 74 -211 -3 -3 -22 5 -41 17
-20 11 -59 30 -88 40 l-53 19 -18 -34 c-9 -19 -24 -60 -32 -91 -8 -31 -16 -59
-19 -61 -7 -8 -132 136 -165 191 -69 115 -108 242 -117 381 l-6 90 61 -60 c34
-33 75 -80 92 -104z m-11452 -325 c16 -84 13 -250 -4 -324 -18 -77 -70 -191
-115 -251 -37 -50 -43 -46 -54 33 -3 27 -11 66 -16 87 l-10 38 -45 -14 c-66
-19 -133 -66 -209 -145 l-68 -70 7 37 c11 59 65 213 97 278 17 33 54 96 84
140 57 85 151 193 138 160 -36 -100 -43 -124 -44 -151 0 -37 21 -58 48 -50 14
5 21 19 26 55 7 57 61 169 107 224 37 45 42 41 58 -47z m12337 -43 c19 -34 40
-89 46 -122 12 -65 34 -85 64 -60 20 16 12 93 -16 157 -10 23 -16 42 -12 42
12 0 102 -110 150 -183 72 -111 143 -283 167 -406 7 -33 5 -32 -59 37 -75 79
-144 127 -211 147 l-45 14 -9 -37 c-9 -36 -13 -55 -26 -136 l-6 -39 -36 49
c-53 73 -100 178 -119 261 -19 85 -15 298 6 368 l12 40 30 -35 c16 -19 45 -63
64 -97z m-11776 -170 c13 -92 3 -202 -26 -289 -22 -66 -78 -173 -113 -215
l-29 -34 -7 30 c-4 17 -12 49 -18 72 l-12 42 -74 -35 c-40 -18 -96 -50 -123
-70 -28 -19 -51 -34 -53 -32 -7 7 25 165 46 228 34 104 96 214 161 285 33 36
69 70 80 76 18 10 17 4 -10 -42 -56 -100 -78 -210 -44 -228 28 -15 49 5 56 52
13 84 128 286 147 256 4 -7 13 -50 19 -96z m217 50 c-17 -31 -60 -118 -95
-192 -36 -78 -61 -121 -58 -101 4 19 10 70 13 114 l6 78 81 79 c45 43 82 79
83 79 0 0 -13 -26 -30 -57z m10804 -173 c4 -41 10 -93 14 -115 5 -28 -13 1
-59 98 -35 75 -79 163 -97 195 l-32 57 84 -80 84 -80 6 -75z m149 170 c53 -78
88 -154 96 -208 7 -50 34 -71 58 -46 9 8 16 26 16 40 0 35 -37 140 -68 192
-23 40 -24 44 -5 34 38 -21 133 -133 173 -205 22 -40 51 -106 65 -147 23 -70
56 -230 49 -239 -2 -2 -18 7 -36 21 -50 37 -99 65 -161 92 l-56 25 -17 -75
-16 -76 -35 49 c-95 132 -137 257 -137 413 0 90 15 190 29 190 2 0 23 -27 45
-60z m-12080 -432 c-50 -87 -75 -223 -45 -248 30 -25 52 -3 58 58 4 38 20 85
49 142 l42 85 9 -45 c15 -80 2 -345 -22 -435 -22 -82 -94 -245 -108 -245 -4 0
-18 37 -31 82 -12 45 -25 84 -27 87 -18 18 -177 -123 -258 -229 l-49 -65 7 45
c13 84 64 269 99 358 65 169 137 292 229 390 57 59 75 67 47 20z m12871 -72
c17 -36 33 -90 36 -120 4 -43 10 -57 25 -62 65 -20 64 94 -3 229 -15 31 -24
57 -20 57 14 0 106 -103 150 -169 53 -77 120 -218 156 -326 27 -83 85 -309 85
-334 0 -8 -22 15 -49 50 -53 71 -182 196 -225 219 -34 18 -39 11 -63 -87 -9
-40 -20 -73 -24 -73 -24 0 -95 174 -120 295 -19 91 -26 307 -13 388 6 36 7 37
21 17 8 -11 27 -49 44 -84z m-12315 -134 c-34 -67 -58 -155 -54 -199 3 -35 6
-38 33 -38 28 0 30 3 37 50 9 64 32 127 65 185 l27 45 9 -45 c16 -85 1 -315
-27 -425 -26 -99 -100 -265 -122 -272 -7 -2 -14 7 -18 20 -3 13 -12 40 -21 60
l-15 37 -43 -21 c-45 -23 -110 -72 -169 -127 l-36 -34 -7 57 c-25 198 47 436
179 597 43 52 165 158 182 158 2 0 -7 -22 -20 -48z m11882 -21 c184 -153 295
-437 267 -681 l-7 -62 -37 34 c-58 55 -123 104 -169 127 l-43 22 -14 -34 c-7
-18 -17 -45 -20 -60 -4 -15 -11 -27 -16 -27 -13 0 -75 118 -103 198 -14 41
-33 115 -41 165 -15 92 -18 295 -6 352 l6 30 32 -55 c31 -55 59 -139 65 -195
3 -26 7 -30 33 -30 27 0 30 3 33 38 4 45 -20 132 -54 200 -23 45 -24 48 -5 37
11 -6 47 -32 79 -59z m-12518 -579 c19 -139 8 -334 -24 -445 -15 -49 -34 -103
-43 -120 l-17 -32 -14 53 c-19 65 -31 66 -110 8 -68 -51 -144 -138 -191 -220
-18 -31 -35 -56 -38 -56 -3 0 -3 53 1 118 19 297 92 509 252 721 25 34 48 60
50 58 2 -2 -5 -39 -16 -82 -23 -88 -26 -155 -8 -173 28 -28 71 -1 61 37 -6 25
22 152 48 211 27 63 31 57 49 -78z m13149 20 c12 -34 23 -89 26 -122 2 -33 7
-65 10 -70 9 -15 41 -12 55 5 16 20 6 127 -19 202 -10 29 -15 53 -11 53 9 0
101 -124 140 -188 48 -79 95 -197 124 -310 24 -98 52 -332 44 -383 -3 -21 -7
-17 -35 31 -70 120 -198 249 -264 265 -25 6 -28 4 -40 -44 -7 -28 -15 -51 -19
-51 -8 0 -47 104 -67 180 -23 83 -25 393 -4 485 13 57 14 58 26 34 7 -13 23
-52 34 -87z m-12455 -247 c-48 -245 -52 -258 -53 -164 -1 42 -5 99 -11 128 -9
51 -9 52 40 127 28 42 50 81 50 87 0 6 2 8 4 6 3 -2 -11 -85 -30 -184z m-274
27 c-26 -67 -40 -165 -31 -217 6 -36 9 -40 36 -40 l30 0 6 90 c4 55 15 112 28
145 33 85 38 89 50 44 47 -180 40 -400 -21 -571 -23 -66 -33 -76 -43 -43 -3
11 -12 20 -20 20 -28 0 -167 -103 -224 -167 l-60 -66 -8 29 c-4 16 -7 99 -7
184 1 127 5 170 23 235 39 144 108 269 202 364 28 29 53 50 55 48 2 -2 -5 -27
-16 -55z m12165 -9 c19 -48 29 -95 34 -158 l6 -90 30 0 30 0 -1 95 c0 71 -6
110 -22 155 -12 32 -22 62 -22 64 0 14 107 -101 142 -152 101 -148 140 -281
142 -487 0 -80 -3 -163 -7 -184 l-8 -39 -60 66 c-57 64 -196 167 -224 167 -8
0 -17 -9 -20 -20 -11 -35 -22 -22 -48 58 -34 102 -47 186 -47 303 0 114 27
289 45 289 1 0 15 -30 30 -67z m829 -583 c54 -90 100 -222 121 -350 15 -98 19
-338 7 -420 l-7 -45 -35 65 c-44 81 -134 174 -195 201 -26 11 -48 19 -50 17
-1 -1 -9 -16 -17 -32 l-15 -29 -19 74 c-15 60 -19 110 -19 259 0 164 6 227 31
353 3 16 10 25 14 20 21 -20 50 -162 50 -240 0 -74 2 -83 21 -94 71 -37 72
164 3 356 -13 36 63 -57 110 -135z m-13662 58 c-30 -104 -36 -248 -11 -274 13
-12 21 -14 37 -5 17 9 19 21 20 88 0 89 41 267 57 251 15 -14 37 -192 42 -328
5 -152 -9 -291 -36 -361 -9 -24 -9 -24 -21 9 -10 27 -16 32 -34 26 -76 -24
-172 -114 -226 -214 l-34 -65 -8 40 c-13 73 -9 338 7 431 20 114 70 262 115
336 38 63 101 147 111 148 3 0 -5 -37 -19 -82z m858 -46 c-5 -45 -12 -146 -16
-224 -5 -98 -10 -134 -15 -113 -5 17 -19 69 -31 116 l-24 86 28 59 c16 32 36
83 45 111 9 29 18 51 20 50 1 -2 -2 -40 -7 -85z m11907 -50 l35 -84 -28 -116
-29 -117 -12 180 c-6 99 -14 203 -17 230 -4 44 -4 46 6 20 5 -16 26 -67 45
-113z m295 -180 c58 -68 108 -162 138 -257 28 -87 39 -306 21 -411 -19 -108
-42 -204 -49 -204 -4 0 -20 23 -37 51 -41 70 -152 174 -217 204 -29 13 -54 20
-56 15 -8 -24 -21 -5 -35 53 -25 98 -31 204 -17 317 11 97 52 286 65 299 22
22 67 -177 63 -278 l-3 -76 30 0 c36 0 43 20 43 120 1 63 -27 200 -53 260 -14
30 49 -24 107 -93z m-12460 26 c-26 -80 -40 -223 -25 -278 8 -30 14 -35 39
-35 l29 0 1 110 c1 84 6 126 23 178 12 37 26 67 30 67 10 0 43 -119 62 -220
19 -100 17 -291 -4 -383 -17 -73 -20 -77 -42 -71 -55 14 -224 -122 -277 -222
-12 -24 -26 -44 -30 -44 -3 0 -16 42 -29 93 -31 129 -38 355 -14 464 21 98 78
219 139 300 42 56 101 113 117 113 3 0 -5 -32 -19 -72z m-639 -570 c-30 -117
-30 -274 0 -292 12 -8 22 -8 34 0 15 9 17 24 14 90 -3 83 32 269 49 259 12 -7
47 -147 66 -260 20 -122 14 -313 -11 -395 -15 -46 -19 -52 -29 -37 -6 9 -35
55 -65 102 -45 70 -57 83 -68 73 -29 -24 -77 -136 -103 -243 -31 -127 -33
-125 -51 87 -19 217 10 427 77 561 27 53 93 147 104 147 3 0 -4 -42 -17 -92z
m13679 45 c114 -152 163 -383 139 -662 -17 -200 -23 -214 -45 -110 -20 96 -65
211 -99 252 l-22 29 -67 -102 -67 -102 -16 54 c-22 71 -30 253 -16 358 13 98
61 300 71 300 16 0 52 -186 50 -259 -2 -42 -2 -82 -1 -88 2 -20 49 -15 61 6
25 47 4 254 -35 354 -13 32 11 17 47 -30z m-12762 -548 c28 -221 61 -401 112
-605 22 -91 43 -172 45 -180 3 -8 -22 33 -56 92 -33 60 -79 135 -102 167 l-42
60 19 63 c15 51 19 94 19 228 -1 145 -4 178 -27 270 -15 58 -38 136 -52 173
l-25 66 23 58 c13 32 27 74 32 93 6 27 11 -7 21 -140 7 -96 22 -251 33 -345z
m11918 359 c8 -16 4 -40 -24 -122 -75 -220 -95 -453 -53 -620 l20 -82 -55 -82
c-30 -46 -75 -121 -100 -168 -25 -47 -46 -81 -46 -77 0 4 11 47 24 95 85 306
151 722 172 1097 l7 120 22 -70 c12 -38 26 -79 33 -91z m-12180 -101 c-26 -91
-34 -235 -16 -293 12 -40 17 -45 43 -45 27 0 30 3 27 30 -12 129 0 273 29 325
22 41 98 -247 106 -405 5 -98 -7 -231 -23 -257 -3 -4 -35 26 -71 67 l-66 74
-28 -20 c-40 -28 -111 -126 -140 -192 -13 -31 -27 -57 -30 -57 -13 0 -31 137
-36 275 -6 178 8 263 62 373 32 64 135 192 155 192 4 0 -1 -30 -12 -67z
m12396 7 c107 -116 156 -263 156 -468 0 -104 -21 -279 -36 -303 -3 -5 -23 27
-45 70 -25 50 -60 101 -96 137 l-56 57 -65 -71 c-35 -40 -68 -72 -72 -72 -13
0 -30 119 -30 207 0 44 7 120 15 169 17 96 70 280 84 288 10 7 26 -46 42 -138
9 -54 9 -84 -1 -139 -13 -75 -8 -91 31 -85 52 7 63 178 21 336 -11 39 -16 72
-12 72 4 0 33 -27 64 -60z m-12880 -660 c78 -186 116 -352 116 -511 0 -74 -3
-89 -15 -89 -20 0 -194 65 -264 99 -66 31 -67 34 -81 222 -10 133 -1 323 18
409 8 31 9 26 16 -45 14 -147 53 -274 90 -288 8 -3 22 0 33 8 16 12 17 17 5
47 -43 105 -70 280 -57 368 l7 44 44 -79 c24 -44 64 -127 88 -185z m13445 78
c-6 -68 -18 -133 -34 -177 -30 -83 -30 -87 -5 -101 45 -24 90 80 113 260 l13
105 13 -83 c21 -140 11 -512 -15 -554 -10 -16 -289 -128 -319 -128 -12 0 -15
17 -15 94 0 193 53 387 172 626 l72 145 8 -40 c4 -22 2 -88 -3 -147z m-12960
-195 c13 -138 44 -253 90 -325 32 -50 50 -58 75 -33 13 13 10 24 -24 93 -45
88 -70 199 -70 303 l0 71 41 -48 c64 -77 163 -231 213 -330 79 -160 120 -312
114 -425 l-3 -57 -100 45 c-55 25 -152 63 -215 84 l-114 38 -38 68 c-97 175
-117 359 -54 513 20 52 67 133 72 127 1 -1 7 -57 13 -124z m12390 73 c49 -82
71 -163 71 -265 0 -111 -19 -183 -78 -299 l-47 -93 -115 -39 c-63 -21 -161
-58 -217 -83 l-103 -46 0 65 c0 216 140 528 346 769 l26 30 -5 -105 c-7 -120
-34 -221 -79 -292 -24 -39 -27 -50 -18 -67 30 -57 91 12 135 152 24 76 52 298
40 318 -4 5 -2 9 2 9 5 0 24 -24 42 -54z m-13141 -475 c178 -90 352 -150 627
-216 277 -67 480 -149 723 -291 201 -119 270 -170 298 -225 14 -28 24 -52 22
-54 -2 -2 -50 26 -108 61 -242 149 -503 264 -716 315 -364 89 -579 161 -786
263 -185 93 -194 100 -212 199 l-7 38 39 -24 c21 -14 75 -43 120 -66z m13991
28 c-6 -30 -16 -60 -21 -67 -18 -21 -178 -107 -299 -160 -144 -63 -348 -131
-499 -167 -227 -54 -307 -77 -415 -120 -138 -53 -338 -154 -475 -238 -58 -36
-106 -64 -108 -62 -2 2 8 26 22 54 22 42 41 61 114 109 144 97 254 160 404
232 184 88 274 119 526 181 113 27 262 70 331 95 122 45 335 142 396 182 17
10 31 18 33 17 1 -1 -3 -26 -9 -56z m-13989 -213 c207 -106 435 -186 743 -261
217 -52 333 -93 522 -185 129 -63 354 -196 433 -256 20 -16 49 -58 74 -107 22
-45 69 -133 104 -194 35 -62 64 -115 64 -118 0 -3 -27 13 -61 36 -92 62 -311
164 -426 198 -138 40 -285 61 -435 61 -263 0 -465 66 -718 235 -132 88 -290
222 -305 259 -13 31 -86 289 -100 355 -4 18 -3 32 1 30 5 -2 52 -26 104 -53z
m13950 46 c0 -11 -78 -299 -96 -353 -11 -35 -30 -60 -79 -103 -162 -143 -350
-265 -509 -331 -153 -63 -219 -76 -446 -85 -113 -5 -243 -16 -289 -25 -182
-36 -416 -131 -569 -233 -34 -23 -62 -39 -62 -37 0 2 31 60 69 128 38 68 86
158 107 199 36 73 38 75 153 150 319 207 533 302 882 387 309 76 579 173 754
270 74 42 85 46 85 33z m-10304 -36 c19 -104 -80 -222 -311 -372 -78 -51 -98
-59 -155 -65 -36 -4 -66 -6 -68 -4 -6 6 51 140 85 196 98 169 239 259 430 278
7 0 15 -14 19 -33z m6706 4 c132 -40 241 -145 318 -305 73 -151 73 -144 -2
-138 -52 4 -76 13 -137 51 -241 148 -357 280 -337 386 l7 36 47 -7 c26 -3 73
-14 104 -23z m-7584 -42 c-86 -131 -174 -313 -224 -462 -45 -136 -80 -299 -99
-464 -18 -149 -20 -473 -4 -643 6 -65 9 -124 7 -129 -2 -6 -49 50 -106 124
l-102 135 0 125 c0 292 78 632 202 879 66 132 166 276 273 395 58 64 79 79 53
40z m4672 4 c0 -4 -18 -108 -40 -231 -22 -123 -39 -226 -36 -228 6 -6 950
-362 953 -360 1 1 48 84 105 184 l104 181 372 -316 371 -317 -107 -100 c-59
-55 -140 -131 -180 -170 l-73 -70 182 -395 c100 -217 185 -399 190 -404 4 -4
114 17 245 48 130 31 238 55 239 53 5 -8 124 -871 120 -875 -2 -3 -111 7 -242
22 -131 14 -241 26 -245 26 -4 0 -5 -69 -2 -152 l6 -153 -103 -43 -104 -44
-125 40 -125 39 5 54 c3 30 5 158 5 284 -1 244 -9 318 -60 517 -66 256 -199
527 -360 734 -380 486 -937 777 -1535 801 -480 19 -953 -126 -1340 -410 -123
-90 -337 -306 -422 -427 -189 -267 -309 -566 -365 -911 -23 -138 -26 -625 -4
-638 9 -6 -26 -21 -102 -45 -63 -20 -118 -36 -122 -36 -6 0 -216 89 -222 94
-1 1 -7 60 -13 131 -5 70 -13 131 -16 134 -3 3 -122 11 -264 16 -164 6 -263
14 -270 21 -8 8 6 121 54 424 35 227 67 414 69 416 3 3 111 -22 241 -54 212
-54 237 -58 245 -43 5 9 113 211 240 449 127 238 231 436 231 440 0 4 -76 61
-170 127 -93 66 -170 125 -169 130 0 9 672 607 689 613 4 2 54 -75 110 -170
56 -95 110 -185 119 -199 l16 -27 475 220 c261 121 478 223 483 227 4 4 -13
89 -38 190 -25 100 -45 189 -45 196 0 13 72 15 515 15 283 0 515 -3 515 -8z
m3711 -74 c276 -317 431 -732 446 -1193 l6 -171 -104 -138 c-65 -86 -105 -131
-107 -121 -2 9 1 69 7 135 16 171 14 473 -5 630 -18 163 -54 329 -100 470 -37
113 -141 333 -198 418 -19 28 -31 52 -26 52 5 0 41 -37 81 -82z m-7141 -244
c28 -8 50 -18 50 -23 0 -15 -56 -85 -94 -119 -108 -95 -322 -144 -541 -124
l-80 7 -7 45 c-3 25 -8 54 -10 64 -2 15 16 27 96 63 232 103 432 133 586 87z
m6169 -6 c142 -34 347 -120 335 -140 -4 -5 -9 -33 -13 -62 l-6 -51 -80 -7
c-218 -21 -432 29 -541 124 -38 34 -94 104 -94 119 0 9 83 35 135 42 53 8 178
-4 264 -25z m-10054 -192 c127 -105 320 -218 464 -273 132 -49 216 -64 431
-73 231 -9 344 -29 500 -87 161 -60 284 -128 443 -245 56 -42 127 -121 127
-142 0 -3 -26 11 -57 31 -81 51 -243 127 -348 162 -160 53 -280 72 -515 81
-168 7 -232 13 -294 30 -185 50 -385 152 -577 296 -172 130 -234 188 -247 232
-20 66 -20 66 73 -12z m13659 11 c-13 -37 -31 -59 -97 -115 -254 -213 -494
-351 -722 -412 -63 -17 -126 -23 -295 -30 -235 -9 -355 -28 -515 -81 -103 -34
-248 -101 -336 -155 -33 -20 -62 -34 -65 -32 -11 11 59 89 122 135 160 118
283 186 444 246 156 58 269 78 500 87 219 9 309 25 439 77 157 62 328 164 465
277 38 31 71 55 72 53 2 -2 -3 -24 -12 -50z m-10540 -3 c19 -50 -3 -113 -72
-200 -32 -41 -49 -53 -98 -68 -73 -23 -229 -101 -309 -155 -32 -22 -60 -39
-62 -37 -5 5 33 109 57 156 101 198 260 316 431 319 34 1 49 -3 53 -15z m7478
5 c121 -26 225 -102 307 -224 42 -64 118 -231 109 -240 -2 -2 -35 17 -73 42
-93 59 -226 126 -299 149 -51 16 -66 27 -103 74 -67 86 -87 143 -67 194 7 19
51 21 126 5z m-10520 -236 c46 -37 120 -91 166 -121 l82 -54 -25 -29 c-51 -61
-72 -215 -45 -333 6 -27 9 -50 7 -52 -4 -4 -134 292 -187 425 -64 161 -89 231
-85 231 3 0 42 -30 87 -67z m13504 5 c-79 -208 -246 -601 -253 -594 -2 2 1 23
6 47 16 68 13 202 -5 256 -9 26 -27 62 -40 80 l-24 31 98 66 c53 35 126 90
162 120 36 30 68 55 72 55 4 1 -4 -27 -16 -61z m-10314 -128 c62 -29 119 -80
158 -139 36 -56 84 -168 95 -220 l7 -34 -51 44 c-205 177 -447 215 -674 105
-100 -48 -195 -122 -309 -240 l-98 -100 0 100 0 100 86 75 c187 162 406 293
544 324 84 19 184 13 242 -15z m7348 -1 c141 -45 322 -159 494 -309 l86 -75 0
-97 c0 -54 -3 -98 -7 -97 -5 0 -30 27 -58 60 -121 146 -290 265 -450 317 -79
26 -243 22 -326 -6 -79 -27 -170 -80 -239 -140 -60 -51 -62 -43 -20 67 66 170
158 271 277 301 55 13 168 4 243 -21z m-3622 -110 c657 -71 1250 -486 1550
-1085 77 -155 149 -378 184 -574 13 -75 20 -592 7 -604 -3 -3 -21 -1 -40 4
-19 5 -52 13 -74 19 l-40 10 0 218 c-1 300 -33 477 -132 718 -276 677 -943
1135 -1652 1135 -81 0 -185 -5 -231 -10 -958 -119 -1574 -859 -1583 -1902 l-2
-166 -75 -20 c-41 -11 -77 -18 -80 -15 -3 2 -5 120 -4 261 0 274 9 355 59 553
111 437 362 817 709 1074 395 292 924 437 1404 384z m-6288 -109 c24 -1 188
-123 282 -210 132 -122 238 -273 284 -403 l14 -39 -68 7 c-37 4 -70 10 -73 13
-4 4 -12 25 -19 47 -19 62 -75 170 -121 233 -64 87 -202 219 -319 304 -58 43
-114 84 -125 92 -11 8 14 2 55 -14 41 -16 82 -30 90 -30z m-211 -5 c182 -112
356 -263 449 -390 71 -96 131 -225 105 -225 -30 0 -335 78 -455 116 l-146 47
-29 51 c-70 126 -103 235 -103 336 0 94 12 102 43 29 63 -145 194 -327 248
-344 22 -7 49 10 49 31 0 8 -26 40 -57 72 -32 32 -79 94 -104 138 -47 81 -102
194 -93 194 2 0 44 -25 93 -55z m12456 -7 c-244 -174 -408 -361 -471 -537 -15
-42 -30 -79 -33 -82 -3 -4 -36 -10 -74 -14 l-67 -7 25 68 c82 218 392 526 605
602 47 16 89 30 94 31 5 1 -31 -27 -79 -61z m194 -40 c-58 -115 -124 -213
-170 -250 -40 -32 -48 -55 -27 -76 19 -19 32 -15 82 29 60 53 117 136 182 267
56 113 64 114 64 8 0 -87 -22 -165 -79 -282 l-50 -100 -148 -47 c-122 -38
-427 -117 -455 -117 -16 0 -7 32 26 98 91 181 263 351 520 512 50 32 92 54 94
50 2 -5 -16 -46 -39 -92z m-11937 6 l36 -6 -14 -34 c-28 -67 -13 -174 40 -286
31 -66 121 -196 174 -250 20 -21 33 -40 30 -43 -3 -3 -30 -3 -60 1 l-55 6 -12
48 c-16 63 -82 191 -134 260 -53 71 -154 177 -240 251 l-68 59 133 0 c73 0
149 -3 170 -6z m11411 -52 c-99 -85 -215 -212 -270 -294 -47 -72 -113 -216
-113 -250 0 -11 -8 -18 -19 -18 -10 0 -40 -3 -67 -7 l-49 -6 42 45 c179 195
266 409 219 540 -13 36 -13 37 13 41 14 2 90 5 169 6 l143 1 -68 -58z m-11265
-85 c53 -101 126 -194 194 -247 54 -43 83 -48 102 -17 9 16 6 23 -24 45 -63
49 -122 114 -171 191 -27 41 -46 77 -44 79 7 7 156 -81 265 -156 123 -84 247
-189 314 -266 52 -59 159 -216 152 -223 -2 -2 -46 7 -97 21 -95 24 -246 49
-375 61 l-70 7 -61 67 c-181 200 -272 380 -248 491 4 16 10 30 13 30 4 0 26
-37 50 -83z m10947 39 c17 -111 -86 -305 -256 -483 l-57 -59 -147 -18 c-125
-15 -282 -46 -374 -72 l-25 -7 29 49 c97 167 253 320 474 466 119 78 230 142
236 136 3 -2 -18 -40 -47 -83 -52 -79 -106 -139 -168 -187 -30 -22 -33 -29
-24 -45 19 -32 49 -27 105 19 66 53 147 159 197 255 20 40 40 73 44 73 4 0 10
-20 13 -44z m-10618 -29 c183 -81 371 -210 441 -302 114 -151 224 -286 309
-379 50 -55 90 -102 89 -104 -2 -1 -38 17 -80 42 -43 24 -105 55 -139 70 -61
26 -63 27 -99 105 -89 189 -286 388 -553 559 -44 29 -77 52 -73 52 5 0 52 -19
105 -43z m10223 -32 c-265 -177 -457 -379 -529 -558 -21 -50 -27 -57 -74 -77
-29 -12 -90 -43 -137 -68 -47 -26 -89 -49 -95 -51 -5 -2 24 33 65 78 83 90
157 181 284 346 99 130 174 192 361 300 50 29 213 103 229 104 4 1 -42 -33
-104 -74z m-4775 31 c590 -136 1071 -564 1268 -1133 70 -201 103 -427 95 -645
-3 -71 -8 -131 -11 -134 -5 -5 -292 56 -457 97 l-36 9 -17 128 c-77 563 -351
951 -781 1101 -123 43 -236 61 -391 61 -340 0 -629 -112 -845 -329 -212 -213
-321 -484 -345 -863 l-7 -98 -36 -9 c-93 -22 -488 -111 -496 -111 -14 0 2 312
24 458 98 667 475 1165 1050 1387 215 83 406 115 670 111 170 -2 210 -6 315
-30z m-6632 -361 c246 -86 538 -151 809 -180 315 -33 569 -65 644 -80 115 -24
268 -77 374 -130 103 -52 274 -155 267 -161 -2 -2 -34 7 -70 21 -89 33 -271
81 -382 99 -164 28 -277 37 -560 46 -240 8 -298 13 -405 35 -320 66 -710 241
-768 344 -12 23 -20 41 -17 41 3 0 52 -16 108 -35z m12685 -5 c-39 -69 -259
-189 -491 -269 -226 -77 -422 -111 -658 -111 -376 0 -756 -59 -988 -154 -33
-13 -61 -23 -61 -20 0 10 157 106 259 158 120 62 273 116 395 141 79 16 410
57 606 76 263 24 567 89 809 172 69 24 132 45 139 45 8 1 5 -12 -10 -38z
m-12547 -224 c303 -146 597 -216 910 -216 594 0 1046 -120 1366 -363 45 -34
126 -98 180 -142 l98 -80 -300 0 c-247 -1 -342 -5 -535 -25 -141 -15 -285 -24
-360 -23 -287 4 -636 92 -989 251 -104 47 -128 62 -153 96 -54 74 -193 289
-262 406 -38 63 -75 125 -83 138 -7 12 -12 22 -9 22 2 0 64 -29 137 -64z
m12441 32 c-11 -18 -48 -80 -83 -138 -81 -136 -223 -355 -260 -401 -23 -30
-58 -50 -177 -102 -347 -153 -681 -236 -962 -240 -75 -1 -219 8 -360 23 -193
20 -288 24 -535 25 l-301 0 104 85 c253 206 414 302 632 374 247 81 464 113
870 126 274 9 341 16 505 55 129 30 313 96 442 160 70 35 132 64 136 64 5 1 0
-14 -11 -31z m-6047 -67 c193 -40 342 -120 486 -261 53 -52 114 -122 136 -155
82 -123 152 -283 193 -445 21 -84 53 -290 46 -297 -2 -2 -62 6 -132 19 l-128
23 -22 111 c-38 190 -107 362 -189 474 -70 95 -178 186 -277 234 -133 63 -207
79 -363 79 -160 0 -269 -24 -400 -88 -163 -80 -281 -197 -360 -360 -57 -116
-85 -225 -92 -353 -5 -94 -8 -103 -27 -107 -70 -15 -198 -36 -202 -32 -11 11
19 275 40 359 64 250 186 449 359 586 136 107 280 174 459 211 128 27 349 28
473 2z m-60 -326 c133 -35 268 -120 350 -223 58 -73 126 -205 158 -307 25 -79
60 -235 55 -240 -2 -2 -76 7 -165 18 l-161 22 -12 59 c-42 216 -249 363 -458
326 -172 -30 -301 -153 -335 -321 l-13 -63 -169 -23 c-94 -12 -178 -24 -187
-27 -16 -4 -18 4 -18 55 0 119 48 288 111 396 46 77 169 199 249 246 71 41
192 82 285 97 79 12 234 4 310 -15z m-5854 -349 c260 -106 538 -175 786 -196
114 -10 159 -9 340 9 358 35 520 44 733 38 262 -7 313 -18 415 -89 l76 -53
-228 -6 c-231 -7 -414 -21 -803 -63 -238 -26 -409 -23 -640 10 -210 30 -498
113 -642 185 -33 17 -82 72 -173 193 -16 22 -22 37 -14 34 8 -3 75 -31 150
-62z m11487 18 c-82 -115 -125 -159 -178 -186 -219 -110 -559 -189 -898 -207
-135 -7 -187 -5 -372 15 -389 42 -572 56 -803 63 l-228 6 76 53 c102 71 153
82 415 89 213 6 375 -3 733 -38 181 -18 226 -19 340 -9 249 21 513 87 776 194
86 35 160 64 164 65 5 0 -7 -20 -25 -45z m-5672 -129 c90 -44 167 -144 176
-229 l3 -29 -70 4 c-38 2 -179 3 -313 2 l-243 -1 7 31 c42 200 260 309 440
222z m-5601 -189 l90 -32 200 -200 c110 -109 244 -235 297 -279 53 -44 95 -81
94 -82 -6 -6 -282 68 -301 81 -37 24 -385 403 -477 518 -25 33 -28 40 -13 34
11 -5 61 -23 110 -40z m11036 17 c-61 -86 -443 -501 -486 -529 -20 -13 -295
-87 -301 -81 -2 2 40 39 94 82 53 44 186 170 296 279 l200 200 94 32 c52 18
97 36 100 39 17 17 20 1 3 -22z m-8950 -149 c206 -166 467 -321 679 -405 52
-21 93 -38 90 -39 -3 0 -61 -11 -130 -25 -69 -13 -133 -25 -142 -25 -11 0 -30
25 -55 72 -89 171 -319 337 -627 455 -50 19 -92 36 -95 38 -2 3 38 5 90 5 l95
0 95 -76z m6719 68 c0 -7 -105 -87 -197 -151 l-32 -22 -6 24 c-4 14 -5 37 -3
52 5 46 107 93 226 104 6 0 12 -3 12 -7z m319 3 c-3 -2 -47 -20 -98 -40 -324
-123 -542 -285 -636 -472 -16 -33 -32 -53 -43 -53 -9 0 -73 12 -142 25 -69 14
-127 25 -130 25 -3 1 38 18 91 39 204 80 473 241 678 405 l95 76 95 0 c52 0
92 -2 90 -5z m-8584 -61 l30 -4 1 -84 c0 -76 3 -90 42 -170 29 -62 36 -84 24
-77 -21 11 -277 254 -349 331 l-52 56 137 -24 c75 -13 151 -25 167 -28z m1007
-28 c-6 -136 59 -257 231 -428 l118 -118 -63 0 -64 0 -19 58 c-55 162 -243
350 -485 485 -62 35 -71 42 -50 45 75 8 289 30 310 31 25 1 25 0 22 -73z
m8083 50 l110 -11 -75 -41 c-238 -132 -437 -331 -486 -489 l-18 -55 -65 0 -66
1 86 79 c105 96 186 201 231 295 29 63 33 79 33 158 l0 88 70 -7 c39 -4 120
-12 180 -18z m873 -161 c-103 -101 -197 -189 -208 -195 -19 -10 -18 -6 9 47
42 85 63 165 59 229 -3 53 -3 54 27 59 17 2 80 13 140 23 181 32 183 44 -27
-163z m-8684 114 c207 -71 411 -184 524 -293 63 -59 142 -166 142 -191 0 -13
-193 -39 -377 -52 l-92 -6 -73 59 c-205 165 -335 351 -326 467 l3 40 33 -46
c57 -80 185 -209 246 -249 62 -40 96 -47 115 -24 18 22 3 43 -47 68 -69 33
-288 258 -252 258 7 0 54 -14 104 -31z m4091 1 c501 -59 1246 -219 1720 -370
699 -223 1499 -293 2250 -199 158 20 410 66 513 93 28 8 52 11 52 7 0 -4 -22
-27 -50 -50 -54 -46 -87 -58 -260 -95 -286 -62 -536 -87 -875 -87 -279 0 -438
10 -695 47 -222 31 -288 46 -873 198 -971 252 -1501 361 -1942 397 -173 14
-561 6 -735 -16 -455 -56 -903 -156 -2135 -474 -360 -93 -651 -136 -1002 -150
-440 -16 -880 26 -1219 118 -70 19 -87 29 -125 68 -40 41 -42 45 -19 40 14 -2
104 -21 200 -40 588 -120 1253 -129 1880 -26 170 28 451 92 590 134 732 224
1420 369 2015 424 154 15 505 5 710 -19z m3284 -12 c-58 -76 -184 -192 -233
-217 -26 -13 -50 -29 -53 -37 -7 -20 15 -44 42 -44 56 0 212 136 316 274 l44
60 3 -32 c12 -118 -121 -310 -329 -479 l-70 -56 -92 6 c-158 11 -377 39 -377
49 0 18 40 84 78 130 111 132 297 249 552 344 150 56 161 57 119 2z m-8077 -1
c160 -74 351 -206 438 -304 53 -59 101 -134 123 -190 l17 -43 -54 0 -55 0 -31
59 c-94 176 -283 323 -590 457 -80 35 -79 39 15 47 22 2 45 4 52 5 7 1 45 -13
85 -31z m8898 17 c22 -5 18 -8 -30 -28 -300 -124 -514 -287 -610 -468 l-31
-58 -55 0 c-30 0 -54 3 -54 6 0 23 71 143 116 198 96 117 269 242 449 327 82
38 120 42 215 23z m-9203 -55 c231 -81 442 -205 568 -333 73 -74 126 -148 115
-160 -12 -11 -535 40 -616 60 -13 3 -21 10 -18 15 3 5 -17 35 -46 65 -94 104
-162 224 -175 314 -8 51 -9 52 62 -40 74 -95 190 -203 250 -233 52 -27 77 -27
87 -1 9 24 -3 40 -48 61 -68 33 -221 187 -270 271 -10 16 -10 16 91 -19z
m9397 19 c-49 -84 -202 -238 -270 -271 -45 -21 -57 -37 -48 -61 10 -26 35 -26
87 0 61 31 187 150 260 247 29 37 53 63 55 57 6 -18 -29 -125 -60 -180 -36
-65 -76 -119 -131 -177 -22 -22 -37 -46 -33 -51 3 -5 -5 -13 -18 -16 -83 -21
-604 -71 -616 -60 -10 10 39 82 104 151 115 123 333 253 570 339 103 37 110
39 100 22z m-7557 -124 c76 -41 204 -104 285 -141 81 -36 145 -70 143 -73 -12
-19 -73 -18 -147 0 -106 28 -211 70 -336 136 -88 46 -262 151 -262 158 0 1 40
0 90 -2 89 -4 90 -5 227 -78z m3118 36 c438 -38 938 -142 1990 -415 726 -188
972 -226 1480 -226 347 0 642 28 898 86 56 13 103 22 105 20 1 -1 -64 -58
-145 -126 -184 -153 -422 -331 -617 -462 -178 -119 -521 -325 -555 -334 -31
-8 -265 12 -451 38 -291 41 -543 99 -898 208 -508 156 -1228 305 -1757 363
-173 19 -574 16 -760 -5 -537 -63 -1277 -221 -1785 -382 -356 -112 -804 -198
-1160 -221 l-105 -6 -110 62 c-356 203 -766 488 -1063 738 -63 54 -120 102
-128 108 -25 20 -15 22 44 8 255 -61 586 -95 927 -95 280 0 439 11 695 47 204
29 305 51 645 139 1160 302 1678 412 2135 454 127 12 478 12 615 1z m2664 -6
c33 -4 61 -10 61 -13 0 -11 -204 -121 -302 -163 -163 -70 -322 -102 -343 -69
-2 4 62 38 143 75 81 36 192 91 247 121 109 59 105 58 194 49z m-2559 -909
c489 -58 1169 -199 1655 -345 376 -113 477 -138 728 -185 156 -28 439 -65 504
-65 24 0 43 -4 43 -8 0 -4 -39 -27 -87 -50 l-88 -43 -180 30 c-113 20 -350 75
-640 151 -1032 269 -1535 375 -1980 420 -166 17 -603 14 -774 -5 -380 -43
-848 -138 -1506 -306 -170 -44 -449 -115 -620 -158 -170 -44 -382 -92 -470
-106 l-160 -27 -87 43 c-49 24 -88 47 -88 51 0 4 19 8 43 8 113 0 473 55 727
111 132 29 200 48 520 143 554 166 1337 320 1835 360 104 8 495 -4 625 -19z
m-500 -139 c0 -2 -30 -33 -66 -68 -120 -115 -207 -248 -249 -380 l-22 -68 -12
42 c-38 127 -129 235 -246 292 -67 34 -175 64 -235 67 -125 5 526 103 745 112
39 2 73 4 78 5 4 1 7 0 7 -2z m420 -32 c138 -14 544 -71 565 -78 6 -2 -3 -7
-20 -10 -96 -22 -126 -32 -182 -58 -118 -55 -219 -174 -254 -298 l-12 -45 -13
48 c-18 70 -79 194 -127 257 -22 30 -74 90 -116 133 l-75 77 45 -5 c24 -3 109
-12 189 -21z m-263 -36 c34 -29 80 -74 103 -100 37 -43 42 -54 47 -116 12
-144 -17 -210 -98 -221 -39 -5 -44 -9 -44 -31 0 -22 5 -25 40 -28 87 -6 149
63 164 180 l8 63 30 -65 c44 -93 56 -144 56 -240 -1 -117 -16 -157 -76 -197
-93 -62 -146 -53 -195 35 -24 43 -39 51 -59 31 -17 -17 7 -79 48 -120 74 -74
147 -62 307 48 68 47 170 99 178 91 6 -7 -35 -126 -63 -182 -36 -70 -114 -150
-176 -177 -69 -31 -184 -31 -274 0 l-63 21 -62 -21 c-90 -31 -205 -31 -276 0
-94 42 -185 166 -226 309 l-15 53 22 -6 c31 -10 124 -62 179 -101 99 -70 163
-91 226 -74 44 11 84 51 107 108 11 26 12 38 4 48 -19 24 -37 16 -61 -28 -49
-88 -102 -97 -195 -35 -59 40 -74 78 -74 197 0 91 32 216 69 273 l19 28 6 -60
c10 -113 75 -185 162 -179 35 3 40 6 40 28 0 22 -5 26 -42 31 -74 10 -103 57
-103 169 1 107 10 127 114 228 52 50 99 92 103 92 5 0 37 -24 70 -52z m-899
-123 c176 -42 306 -164 341 -322 l9 -43 -52 46 c-63 55 -154 100 -222 109 -65
9 -153 -9 -228 -46 -37 -18 -75 -29 -101 -29 -112 0 -211 -63 -261 -167 l-27
-55 -19 23 c-29 39 -58 126 -58 177 0 128 138 265 308 306 76 19 232 19 310 1z
m1977 0 c87 -23 138 -50 202 -109 101 -92 130 -204 79 -311 -13 -27 -30 -59
-39 -69 -14 -19 -16 -17 -36 30 -45 101 -132 163 -241 171 -43 4 -85 15 -125
34 -155 75 -298 58 -434 -52 l-64 -51 8 38 c27 146 164 278 331 318 81 20 245
20 319 1z m-1819 -297 c58 -27 153 -113 193 -177 33 -50 39 -70 19 -54 -29 22
-108 46 -178 53 -41 5 -96 14 -121 21 -60 15 -112 5 -152 -31 -25 -23 -32 -36
-32 -68 0 -47 26 -82 62 -82 27 0 32 33 8 60 -34 38 23 77 95 65 73 -12 130
-79 130 -151 0 -150 -225 -195 -365 -72 -141 124 -121 319 43 415 97 57 206
65 298 21z m1615 -4 c64 -29 132 -94 155 -149 34 -82 7 -194 -64 -268 -51 -53
-105 -79 -178 -85 -76 -6 -121 9 -164 53 -63 65 -48 166 32 215 49 30 95 35
134 16 37 -17 43 -36 18 -60 -21 -21 -14 -50 12 -54 28 -4 64 41 64 80 0 41
-54 94 -105 104 -22 4 -57 2 -84 -5 -25 -7 -81 -16 -123 -21 -46 -5 -99 -18
-132 -33 -31 -14 -56 -22 -56 -18 0 16 86 126 128 163 110 99 234 120 363 62z
m-2652 -45 c62 -27 105 -62 141 -115 l31 -44 -27 -55 c-20 -43 -25 -65 -21
-96 8 -58 49 -114 117 -158 33 -21 56 -41 53 -45 -10 -10 -251 -7 -343 4 -94
12 -513 127 -715 197 -139 49 -392 152 -515 210 l-75 36 50 9 c28 4 111 20
185 34 404 78 720 13 941 -194 69 -64 100 -75 107 -38 7 33 -106 133 -227 203
l-56 32 28 10 c113 43 240 47 326 10z m3700 6 c79 -20 81 -28 13 -65 -67 -36
-183 -127 -207 -164 -18 -27 -11 -56 14 -56 9 0 35 18 56 41 55 56 150 123
227 159 155 73 402 106 593 81 86 -12 356 -68 364 -77 2 -2 -18 -13 -45 -25
-27 -12 -85 -37 -129 -56 -236 -102 -858 -310 -1013 -339 -94 -17 -409 -31
-439 -20 -16 7 -14 10 12 23 54 28 115 84 135 123 27 53 25 103 -6 160 l-26
48 31 46 c88 128 229 168 420 121z m-3101 -12 c-49 -96 -53 -110 -53 -188 1
-90 21 -143 80 -212 19 -22 37 -53 41 -69 4 -16 15 -46 26 -66 21 -42 20 -43
-54 -27 -151 33 -237 112 -254 236 -13 99 37 240 101 288 42 31 124 58 113 38z
m2324 -29 c49 -31 83 -85 103 -159 49 -192 -30 -321 -228 -371 -37 -9 -69 -15
-71 -13 -12 12 44 141 76 179 83 96 102 243 45 345 -15 26 -27 50 -27 52 0 11
68 -11 102 -33z m-1742 -454 c65 -66 188 -236 178 -246 -6 -5 -310 13 -376 22
-76 11 -187 98 -231 181 -19 38 -13 43 30 28 50 -18 137 -19 191 -3 22 6 58
29 81 49 23 21 46 38 50 39 4 0 39 -31 77 -70z m1171 44 c41 -45 115 -74 189
-73 36 0 82 6 103 13 46 17 48 7 9 -55 -32 -50 -73 -87 -138 -125 -39 -23 -65
-28 -197 -40 -160 -14 -257 -17 -257 -9 0 37 229 315 260 315 3 0 17 -12 31
-26z m-1860 -133 c62 -33 105 -46 203 -60 49 -7 75 -16 90 -32 l21 -21 -63 6
c-95 11 -326 51 -438 77 l-99 23 94 13 c52 7 96 15 99 18 12 11 41 4 93 -24z
m2604 10 c33 -6 83 -11 110 -12 36 0 44 -3 30 -8 -41 -17 -531 -101 -589 -101
l-30 0 34 25 c19 14 47 25 62 25 54 0 163 31 213 60 52 30 55 30 170 11z
m-1315 -57 c70 -21 152 -27 210 -15 29 6 54 10 56 9 1 -2 -12 -27 -29 -56
l-32 -52 -275 0 -275 0 -32 56 -33 55 38 -8 c63 -13 183 -6 242 15 30 11 62
17 70 15 8 -3 35 -11 60 -19z"/>
<path d="M12440 6554 c-21 -9 -40 -35 -40 -55 0 -32 29 -49 83 -49 70 0 124
-16 173 -52 44 -31 103 -36 112 -10 6 20 -95 114 -153 142 -48 23 -143 36
-175 24z"/>
<path d="M11415 6467 c-63 -37 -85 -61 -85 -93 0 -31 2 -32 50 -39 79 -11 82
-34 5 -42 -36 -5 -45 -9 -45 -25 0 -60 85 -108 190 -108 85 0 141 25 163 73
28 57 21 89 -24 112 -40 21 -66 19 -95 -10 -20 -20 -23 -28 -14 -45 13 -24 56
-26 84 -5 25 19 36 19 36 0 0 -44 -168 -72 -232 -39 l-30 16 31 19 c17 10 31
27 31 37 0 24 -37 58 -72 66 -16 3 -28 11 -28 16 0 13 34 13 81 -2 32 -9 46
-8 81 5 38 16 45 16 90 -1 36 -13 52 -14 66 -6 27 17 25 38 -5 51 -15 7 -36
18 -46 25 -14 11 -25 9 -68 -15 l-50 -29 -39 26 c-45 29 -47 30 -75 13z"/>
<path d="M11918 6453 c-34 -12 -48 -22 -53 -40 -7 -31 1 -43 28 -43 21 -1 22
-1 2 -12 -22 -12 -45 -37 -45 -50 0 -19 42 -48 69 -48 35 0 46 23 23 47 -16
16 -16 16 1 10 10 -4 23 -7 27 -7 5 0 14 -9 20 -20 27 -51 -48 -82 -106 -44
-31 21 -48 8 -38 -30 13 -52 77 -81 126 -55 24 13 57 83 58 122 0 36 12 35
135 -13 40 -15 17 -30 -47 -30 -57 0 -60 -11 -23 -70 20 -31 31 -40 54 -40 40
0 58 26 69 100 10 60 9 66 -10 82 -22 20 -109 48 -145 48 -13 0 -32 -5 -43
-12 -16 -11 -23 -9 -47 13 -15 15 -37 31 -48 37 -20 11 -20 11 1 12 12 0 40
-8 63 -19 35 -15 49 -16 87 -8 37 9 50 8 74 -6 32 -19 85 -22 96 -6 7 13 -62
78 -84 79 -7 0 -30 -10 -52 -22 l-38 -23 -41 33 c-45 36 -47 36 -113 15z"/>
<path d="M11133 6448 c-48 -13 -67 -48 -65 -122 1 -129 43 -204 105 -192 17 4
38 12 45 20 16 16 27 85 18 120 -16 63 -106 69 -106 7 0 -36 29 -56 68 -47 26
6 26 6 8 -9 -39 -30 -88 -13 -105 36 -16 48 -14 67 14 95 21 21 31 24 60 18
36 -6 65 7 65 30 0 6 -17 20 -38 32 -29 17 -44 19 -69 12z"/>
<path d="M10850 6380 c-28 -35 -31 -45 -25 -80 l7 -40 53 0 c92 0 98 -46 11
-86 -51 -24 -138 -32 -164 -16 -9 7 -8 13 8 27 45 40 15 77 -68 85 -53 5 -55
6 -38 23 13 13 27 16 55 11 28 -4 42 -2 54 11 22 22 21 35 -2 35 -10 0 -24 7
-31 15 -20 24 -50 14 -82 -26 -25 -31 -28 -41 -22 -77 l7 -42 53 0 c72 0 76
-16 10 -35 -50 -15 -54 -18 -47 -38 24 -67 180 -90 278 -42 61 31 89 77 79
134 -8 50 -37 71 -100 71 l-51 1 23 19 c17 14 32 17 59 13 28 -5 39 -2 49 12
19 26 17 35 -5 35 -10 0 -24 7 -31 15 -21 25 -47 17 -80 -25z"/>
<path d="M12402 6380 c-39 -18 -62 -48 -62 -84 0 -8 24 -18 63 -25 142 -27
267 -81 267 -116 0 -48 -295 -10 -314 41 -8 20 11 18 40 -5 15 -12 33 -17 49
-13 67 12 25 72 -51 72 -35 0 -47 -5 -59 -24 -14 -21 -14 -28 -2 -58 18 -43
43 -64 96 -83 88 -31 237 -11 261 36 18 33 11 66 -20 93 -31 26 -150 68 -227
81 -51 8 -73 29 -46 43 14 8 32 4 70 -14 45 -22 58 -24 89 -15 32 9 42 7 81
-15 30 -18 51 -24 68 -20 34 9 30 25 -16 65 l-39 33 -40 -16 c-55 -22 -64 -21
-103 14 -40 35 -48 36 -105 10z"/>
<path d="M10275 6307 c-51 -20 -72 -35 -104 -76 -25 -32 -30 -45 -25 -71 6
-29 10 -31 43 -29 54 3 73 0 66 -10 -3 -6 -26 -13 -50 -17 -42 -6 -44 -8 -38
-33 7 -29 61 -100 77 -102 48 -5 76 23 76 78 0 54 13 55 61 3 56 -61 103 -52
135 27 16 38 18 83 4 83 -5 0 -10 -5 -10 -10 0 -6 -11 -22 -25 -35 -31 -31
-84 -34 -110 -5 -10 11 -29 20 -43 20 -14 0 -32 10 -43 24 -12 15 -36 28 -62
33 l-42 9 35 21 c52 32 155 48 203 31 22 -7 37 -17 35 -23 -1 -5 -7 -8 -13 -6
-5 3 -25 5 -44 5 -45 1 -65 -28 -36 -50 36 -27 125 6 125 47 0 73 -122 122
-215 86z"/>
<path d="M12911 6277 c-44 -18 -56 -29 -63 -52 -9 -34 -5 -39 44 -54 20 -7 42
-19 50 -28 11 -14 6 -15 -49 -11 -74 5 -80 -3 -45 -72 24 -49 55 -80 79 -80 9
0 35 18 59 40 33 30 52 40 77 40 37 0 77 -24 77 -46 0 -20 -17 -18 -47 6 -45
35 -88 -14 -47 -54 28 -29 81 -24 112 10 30 34 28 50 -12 90 -41 41 -75 44
-148 12 -49 -21 -51 -21 -64 -3 -13 17 -11 20 16 31 24 10 30 19 30 43 0 31
-38 71 -67 71 -8 0 -11 5 -7 11 8 14 119 7 177 -11 22 -6 55 -27 75 -45 43
-40 25 -48 -20 -9 -17 14 -37 23 -45 20 -8 -4 -19 -6 -24 -6 -5 0 -9 -11 -9
-23 0 -27 34 -47 81 -47 70 0 88 40 46 101 -53 79 -177 108 -276 66z"/>
<path d="M9850 6164 c-29 -30 -50 -58 -47 -60 3 -3 26 6 52 21 42 25 50 27 85
16 41 -12 80 -52 80 -80 0 -18 -57 -51 -86 -51 -24 0 -9 -46 24 -76 36 -31 77
-31 98 1 15 23 15 32 -1 117 -10 51 -20 100 -24 108 -8 17 -87 60 -112 60 -9
0 -40 -25 -69 -56z"/>
<path d="M13339 6190 c-46 -24 -56 -37 -64 -82 -7 -36 -6 -38 18 -38 14 0 38
-10 52 -23 l27 -22 -30 -119 c-17 -65 -36 -124 -42 -130 -6 -6 -41 -11 -78
-10 -82 1 -135 23 -152 65 -11 25 -10 32 6 50 16 17 16 22 4 29 -24 16 -66 11
-83 -8 -26 -28 -22 -94 7 -125 54 -58 180 -98 247 -78 61 18 82 54 118 195 17
69 31 136 31 149 0 28 -27 55 -64 65 -14 4 -27 12 -28 17 -3 17 32 17 67 1 39
-19 47 -20 63 -4 8 8 4 20 -19 50 -17 21 -34 38 -37 38 -4 -1 -23 -9 -43 -20z"/>
<path d="M9658 6143 c-35 -41 -48 -79 -37 -117 l10 -36 52 6 c84 10 99 -31 31
-85 -49 -38 -165 -38 -126 1 23 23 14 57 -20 74 -38 19 -119 15 -166 -10 -34
-18 -92 -22 -92 -6 0 15 39 32 60 25 23 -7 60 10 60 28 0 15 -55 47 -80 47
-12 0 -29 -17 -46 -46 -22 -38 -25 -49 -16 -70 7 -13 19 -24 29 -24 13 0 14
-3 5 -12 -32 -32 3 -139 50 -157 27 -10 74 2 99 25 42 37 11 112 -40 99 -42
-10 -58 -31 -43 -55 11 -17 10 -20 -8 -20 -28 0 -48 44 -30 65 24 29 92 57
150 62 66 6 87 -9 52 -38 -30 -24 -28 -36 11 -59 58 -36 146 -21 195 33 31 33
39 94 18 135 -18 36 -50 47 -101 38 -27 -5 -35 -4 -35 7 0 18 21 27 63 27 37
0 51 8 60 33 5 12 1 17 -11 17 -10 0 -27 7 -38 15 -25 19 -38 19 -56 -2z"/>
<path d="M13510 6139 c-78 -28 -88 -43 -22 -34 51 7 53 6 92 -33 40 -40 49
-72 30 -102 -6 -10 -26 -15 -62 -15 -62 0 -69 -13 -42 -75 21 -47 52 -60 88
-37 17 12 28 35 41 89 10 40 25 83 32 95 17 26 7 50 -40 101 -35 37 -42 37
-117 11z"/>
<path d="M11627 6123 c-13 -12 -7 -46 10 -66 17 -18 17 -19 -1 -32 -25 -19
-100 -29 -121 -17 -15 8 -13 10 11 16 59 15 84 64 45 86 -44 23 -89 -1 -62
-33 18 -22 -8 -37 -66 -37 -39 0 -53 -4 -53 -14 0 -48 44 -76 118 -76 57 0
103 14 151 46 25 17 39 21 52 14 10 -6 22 -10 28 -10 17 0 13 30 -5 37 -9 3
-14 13 -11 24 8 28 -29 69 -62 69 -15 0 -31 -3 -34 -7z"/>
<path d="M13818 6068 c-28 -6 -48 -16 -48 -23 0 -7 -2 -20 -5 -27 -4 -9 5 -18
22 -25 24 -9 25 -11 7 -12 -11 -1 -29 -10 -39 -21 -15 -17 -16 -24 -7 -45 20
-43 100 -47 89 -5 -6 24 6 26 27 4 58 -58 -40 -99 -101 -42 -27 25 -43 16 -43
-23 0 -43 39 -79 86 -79 47 0 91 45 100 102 6 37 9 39 33 33 31 -8 107 -51
117 -66 5 -8 -9 -10 -49 -7 -68 6 -77 -7 -47 -69 39 -81 95 -63 128 39 14 43
18 68 11 80 -5 9 -38 31 -74 48 -51 24 -72 30 -100 24 -32 -6 -39 -2 -75 35
-46 47 -31 56 28 16 27 -19 50 -25 89 -25 39 0 61 -6 89 -25 39 -26 78 -32 90
-14 3 6 -11 29 -34 51 l-40 40 -52 -13 -53 -13 -32 37 c-34 39 -41 41 -117 25z"/>
<path d="M7925 5989 c-64 -24 -84 -69 -46 -103 17 -16 24 -16 57 -6 58 19 163
17 203 -4 39 -21 95 -15 105 11 8 19 -10 33 -91 74 -70 35 -174 48 -228 28z"/>
<path d="M9011 5944 c-28 -30 -51 -50 -51 -42 0 7 -18 22 -40 32 -45 22 -55
17 -90 -40 -18 -28 -20 -39 -10 -72 l10 -39 57 1 57 1 30 -123 c35 -141 34
-145 -38 -181 -102 -51 -194 -34 -183 33 5 31 4 33 -21 28 -60 -11 -81 -66
-42 -114 30 -38 71 -51 148 -46 116 9 192 63 192 140 0 58 -60 291 -79 306
-10 9 -33 12 -64 9 -40 -3 -47 -2 -45 12 2 12 20 18 67 23 43 5 75 15 100 33
21 14 50 25 65 25 46 0 93 -28 105 -62 6 -17 11 -32 11 -33 0 -1 -23 -12 -50
-25 -62 -29 -63 -49 -3 -93 40 -29 43 -29 67 -14 36 24 39 47 16 135 -11 44
-20 89 -20 100 0 14 -14 27 -43 41 -69 33 -88 29 -146 -35z"/>
<path d="M14268 5940 c-36 -19 -40 -25 -52 -82 -5 -21 -3 -28 8 -28 22 0 86
-32 86 -43 0 -6 -23 -7 -55 -4 -47 5 -55 3 -60 -13 -22 -68 156 -175 258 -156
74 14 130 91 107 147 -11 25 -62 59 -89 59 -19 0 -12 18 9 25 13 4 33 -2 55
-15 27 -17 38 -19 55 -10 21 11 27 30 10 30 -5 0 -16 14 -25 30 -19 36 -36 37
-90 5 -34 -19 -44 -32 -49 -61 -4 -20 -6 -37 -4 -39 2 -1 24 -12 51 -23 88
-39 48 -89 -61 -79 -52 6 -123 34 -129 53 -1 5 11 17 27 26 17 9 30 24 30 31
0 24 -35 60 -69 72 -17 5 -32 15 -33 20 -5 17 40 17 64 1 25 -18 64 -21 73 -6
9 14 -44 80 -64 80 -9 -1 -33 -10 -53 -20z"/>
<path d="M15022 5911 c-8 -4 -12 -19 -10 -32 2 -20 10 -25 43 -29 46 -6 59
-32 25 -50 -28 -15 -64 -6 -118 31 -23 16 -48 29 -54 29 -17 0 -132 -53 -140
-65 -4 -5 -8 -22 -8 -36 0 -23 5 -28 37 -34 21 -4 46 -11 57 -17 27 -15 3 -28
-51 -28 -38 0 -43 -3 -43 -24 0 -51 76 -106 168 -120 75 -11 180 57 198 130
11 41 -3 39 -54 -8 -56 -53 -93 -64 -154 -48 -70 19 -85 39 -43 58 16 8 25 20
25 35 0 26 -38 67 -63 67 -22 0 -30 17 -11 24 28 11 51 7 106 -19 86 -40 165
-30 197 26 37 66 -45 150 -107 110z"/>
<path d="M8519 5886 c-48 -13 -89 -38 -127 -79 -19 -20 -23 -32 -17 -56 6 -28
9 -30 61 -33 30 -2 55 -7 56 -13 1 -5 -21 -16 -50 -24 -66 -18 -67 -33 -1 -88
72 -60 96 -57 134 16 13 26 29 52 37 58 35 27 108 20 108 -12 0 -18 -14 -19
-41 -5 -24 14 -59 -4 -59 -29 0 -49 80 -60 118 -16 29 34 28 60 -3 90 -18 19
-35 25 -68 25 -37 0 -51 -6 -90 -40 -25 -22 -52 -40 -60 -40 -27 0 -32 23 -9
38 49 32 12 92 -56 92 -30 0 -33 2 -22 15 37 44 239 60 277 22 16 -16 16 -17
0 -17 -9 0 -26 5 -36 11 -22 14 -70 4 -78 -16 -11 -29 18 -48 65 -42 120 13
101 116 -28 146 -54 13 -54 13 -111 -3z"/>
<path d="M7897 5818 c-42 -29 -47 -37 -47 -70 l0 -38 73 0 c140 -1 285 -40
274 -73 -6 -21 -69 -36 -152 -36 -101 -1 -155 8 -162 26 -9 23 3 26 31 8 47
-31 111 4 74 41 -38 38 -138 10 -138 -38 0 -73 74 -113 197 -106 111 7 183 48
183 106 0 57 -70 87 -225 98 -107 8 -128 15 -105 38 14 14 21 14 67 -1 48 -15
55 -15 93 0 36 14 45 14 75 1 48 -20 82 -18 95 6 8 14 8 20 0 20 -6 0 -27 12
-47 27 l-35 27 -50 -28 -49 -28 -39 26 c-22 14 -45 26 -53 26 -7 0 -34 -15
-60 -32z"/>
<path d="M15230 5824 c-19 -14 -44 -34 -55 -46 l-20 -21 20 6 c11 3 34 11 51
18 57 23 134 -26 134 -85 0 -36 -15 -46 -72 -46 -23 0 -28 -4 -28 -26 0 -36
47 -94 75 -94 13 0 33 11 44 26 18 23 21 39 19 132 l-2 105 -39 28 c-48 35
-80 35 -127 3z"/>
<path d="M9615 5759 c-66 -39 -80 -79 -46 -135 24 -39 61 -50 101 -29 52 27
35 101 -22 93 -17 -2 -24 -11 -26 -30 -3 -28 -25 -38 -37 -18 -11 18 4 47 31
58 53 25 118 10 205 -45 14 -9 33 -13 42 -10 19 7 23 37 7 37 -6 0 -38 19 -70
42 -48 33 -69 42 -112 45 -29 2 -62 -2 -73 -8z"/>
<path d="M14211 5604 c-43 -55 -36 -127 15 -140 33 -8 64 20 64 57 0 22 -6 30
-26 35 -48 12 -57 -27 -10 -46 20 -8 20 -9 1 -9 -32 -1 -47 14 -43 45 4 37 40
44 79 15 20 -15 36 -20 54 -15 19 5 32 0 50 -16 30 -28 24 -41 -16 -33 -37 7
-52 -10 -37 -43 12 -26 37 -38 61 -28 23 8 51 108 37 134 -17 32 -47 43 -83
30 -29 -10 -34 -8 -50 15 -25 34 -69 34 -96 -1z"/>
<path d="M7290 14175 l0 -135 165 0 c158 0 165 -1 165 -20 0 -11 -4 -20 -10
-20 -6 0 -10 -30 -10 -70 l0 -70 -155 0 -155 0 0 -135 0 -135 505 0 505 0 0
60 0 60 70 0 70 0 0 145 0 145 -400 0 c-393 0 -400 0 -400 20 0 20 7 20 330
20 l330 0 0 135 0 135 -505 0 -505 0 0 -135z m1090 -320 l0 -85 -40 0 -40 0 0
45 0 45 -320 0 -320 0 0 40 0 40 360 0 360 0 0 -85z"/>
<path d="M9290 14125 l0 -145 1475 0 1475 0 0 145 0 145 -1475 0 -1475 0 0
-145z"/>
<path d="M14602 14200 c-341 -18 -498 -40 -653 -91 -316 -104 -611 -326 -793
-598 -119 -178 -213 -395 -271 -626 -59 -234 -70 -337 -69 -650 0 -250 2 -291
22 -385 63 -298 176 -558 335 -773 76 -104 236 -268 348 -358 l87 -69 154 0
155 0 6 -55 c6 -63 29 -108 70 -139 28 -21 35 -21 723 -24 443 -1 694 1 694 7
0 32 -53 170 -72 188 -29 26 -74 49 -116 58 -27 5 -33 11 -30 28 3 21 8 22
103 22 l100 0 3 125 c1 69 0 134 -2 146 -4 15 -35 34 -110 69 -89 40 -107 52
-116 78 -31 91 24 120 147 77 32 -11 60 -20 64 -20 14 0 21 158 9 213 -15 74
-45 116 -105 149 -57 31 -75 52 -75 88 0 54 69 77 149 49 18 -6 34 -10 36 -7
2 2 9 52 15 110 18 165 7 186 -127 234 -86 31 -115 61 -111 118 3 39 5 41 38
44 21 2 61 -7 102 -24 96 -38 98 -35 105 139 5 115 3 140 -10 161 -10 14 -65
49 -132 83 l-115 58 0 102 c0 122 9 112 -164 180 l-120 48 292 3 292 2 0 420
0 420 -155 0 -155 0 -2 188 -3 187 -48 12 c-66 16 -313 23 -495 13z m798 -820
l0 -360 -340 0 -341 0 -227 92 c-125 50 -231 95 -237 100 -5 4 194 8 443 8
l452 0 0 260 0 260 125 0 125 0 0 -360z m-709 -665 c360 -141 658 -260 662
-264 5 -5 11 -33 14 -63 7 -68 -11 -128 -38 -128 -13 0 -1127 425 -1356 517
-34 14 -38 157 -5 190 10 9 25 13 42 9 15 -3 322 -120 681 -261z m4 -502 l660
-259 3 -77 c3 -93 -8 -121 -46 -114 -42 9 -1343 514 -1356 527 -6 6 -11 43
-11 84 0 87 14 111 60 103 16 -3 327 -122 690 -264z m-144 -409 c299 -118 590
-233 645 -255 101 -39 102 -40 123 -89 24 -55 28 -147 9 -172 -12 -14 -91 14
-683 237 -394 148 -679 260 -692 273 -19 18 -23 32 -23 87 0 84 20 135 53 135
13 0 269 -97 568 -216z m80 -533 c349 -136 650 -255 671 -264 35 -15 36 -17
43 -81 8 -74 -4 -140 -25 -143 -8 -2 -323 114 -700 256 l-685 258 -13 38 c-9
29 -10 52 -1 99 12 70 22 86 54 86 12 0 307 -112 656 -249z m552 -637 c106
-27 123 -42 143 -119 l6 -25 -635 0 c-454 0 -643 3 -661 11 -31 14 -56 65 -56
113 l0 36 571 0 c488 0 580 -2 632 -16z"/>
<path d="M9640 13870 l0 -50 -175 0 -175 0 0 -145 0 -145 1475 0 1475 0 0 30
0 30 140 0 140 0 0 165 0 165 -1440 0 -1440 0 0 -50z m2820 -115 l0 -105 -110
0 -110 0 0 85 0 85 -1270 0 c-1263 0 -1270 0 -1270 20 0 20 7 20 1380 20
l1380 0 0 -105z"/>
<path d="M7550 13450 l0 -90 -130 0 -130 0 0 -135 0 -135 475 0 475 0 0 75 0
75 100 0 100 0 0 150 0 150 -445 0 -445 0 0 -90z m830 -60 l0 -90 -70 0 -70 0
0 30 0 30 -315 0 -315 0 0 60 0 60 385 0 385 0 0 -90z"/>
<path d="M9640 13435 l0 -55 -175 0 -175 0 0 -140 0 -140 1475 0 1475 0 0 25
0 25 140 0 140 0 0 170 0 170 -1440 0 -1440 0 0 -55z m2820 -115 l0 -110 -110
0 -110 0 0 85 0 85 -1270 0 -1270 0 0 25 0 25 1380 0 1380 0 0 -110z"/>
<path d="M7550 12980 l0 -70 -130 0 -130 0 0 -140 0 -140 475 0 475 0 0 60 0
60 100 0 100 0 0 150 0 150 -445 0 -445 0 0 -70z m830 -80 l0 -91 -67 3 -68 3
-3 48 -3 47 -315 0 -314 0 0 40 0 40 385 0 385 0 0 -90z"/>
<path d="M9640 12925 l0 -55 -175 0 -175 0 0 -140 0 -140 1475 0 1475 0 0 25
0 25 140 0 140 0 0 170 0 170 -1440 0 -1440 0 0 -55z m2820 -115 l0 -110 -110
0 -110 0 0 85 0 85 -1270 0 -1270 0 0 25 0 25 1380 0 1380 0 0 -110z"/>
<path d="M7480 12495 l0 -85 -110 0 -110 0 0 -835 0 -835 115 0 115 0 0 -90 0
-90 440 0 440 0 0 800 0 800 -75 0 -75 0 0 60 0 60 75 0 75 0 0 150 0 150
-445 0 -445 0 0 -85z m830 -65 l0 -90 -45 0 c-45 0 -45 0 -45 35 l0 35 -340 0
-340 0 0 55 0 55 385 0 385 0 0 -90z m0 -1070 l0 -740 -380 0 -380 0 0 60 0
60 335 0 335 0 0 680 0 680 45 0 45 0 0 -740z"/>
<path d="M9640 12440 l0 -50 -175 0 -175 0 0 -145 0 -145 510 0 510 0 0 -60 0
-60 -340 0 -340 0 0 -135 0 -135 340 0 340 0 0 -490 0 -490 145 0 145 0 0 -95
0 -95 435 0 435 0 0 540 0 540 525 0 525 0 0 180 0 180 -650 0 -650 0 0 60 0
60 510 0 510 0 0 30 0 30 140 0 140 0 0 165 0 165 -1440 0 -1440 0 0 -50z
m2820 -115 l0 -105 -110 0 -110 0 0 85 0 85 -1270 0 c-1263 0 -1270 0 -1270
20 0 20 7 20 1380 20 l1380 0 0 -105z m-2150 -480 l0 -75 -310 0 -310 0 0 75
0 75 310 0 310 0 0 -75z m2150 -45 l0 -120 -525 0 -525 0 0 -540 0 -540 -375
0 -375 0 0 65 0 65 280 0 280 0 0 595 0 595 620 0 620 0 0 -120z"/>
<path d="M8470 11110 l0 -350 110 0 110 0 0 -105 0 -105 440 0 440 0 0 335 0
335 -125 0 -125 0 0 120 0 120 -425 0 -425 0 0 -350z m1040 -225 l0 -275 -380
0 -380 0 0 75 0 75 283 2 282 3 3 198 2 197 95 0 95 0 0 -275z"/>
<path d="M11550 11070 l0 -370 120 0 120 0 0 -100 0 -100 420 0 420 0 0 345 0
345 -120 0 -120 0 0 125 0 125 -420 0 -420 0 0 -370z m1020 -225 l0 -285 -360
0 -360 0 0 70 0 70 270 0 270 0 0 215 0 215 90 0 90 0 0 -285z"/>
<path d="M15525 11308 c-3 -7 -4 -159 -3 -338 l3 -325 128 -3 127 -3 0 -99 0
-100 370 0 370 0 0 310 0 310 -145 0 -144 0 -3 128 -3 127 -348 3 c-274 2
-349 0 -352 -10z m935 -558 l0 -250 -310 0 -310 0 0 70 0 70 193 2 192 3 3
178 2 177 115 0 115 0 0 -250z"/>
<path d="M17158 19326 l-67 -11 -80 -107 c-45 -59 -81 -109 -81 -111 0 -2 24
-20 54 -41 65 -45 162 -144 176 -181 23 -59 17 -69 -220 -383 -127 -168 -245
-316 -263 -330 -27 -20 -39 -23 -83 -18 -90 10 -178 44 -288 111 -138 83 -188
125 -241 199 -48 68 -64 112 -63 171 0 86 43 140 119 150 27 4 52 11 55 17 11
17 -96 115 -150 139 -90 38 -180 8 -246 -83 -117 -161 -61 -376 155 -593 198
-200 408 -302 577 -281 71 9 180 61 235 112 42 40 536 687 560 735 16 32 4
108 -26 166 -17 34 -88 108 -165 171 -32 27 -30 42 9 61 22 10 36 11 65 2 46
-14 80 -46 140 -130 69 -98 151 -125 220 -72 23 18 24 20 8 38 -28 30 -48 89
-49 140 -1 64 -20 115 -50 130 -30 16 -208 15 -301 -1z"/>
<path d="M5567 18968 c-29 -16 -56 -20 -122 -19 -46 1 -95 -4 -109 -10 -43
-20 -59 -78 -64 -238 l-4 -143 93 -94 c52 -52 97 -94 101 -94 5 0 34 24 66 53
93 86 177 138 240 150 49 10 91 -32 98 -98 8 -69 -18 -168 -62 -231 -79 -116
-231 -234 -302 -234 -42 0 -51 14 -41 67 35 187 -144 239 -382 112 -81 -44
-234 -190 -283 -272 -22 -36 -52 -72 -67 -81 -14 -8 -48 -34 -75 -56 -68 -56
-94 -52 -94 16 0 58 52 114 141 152 102 44 152 117 129 190 -17 52 -21 54 -65
32 -33 -17 -56 -20 -131 -18 -80 3 -95 0 -114 -17 -38 -34 -48 -74 -55 -225
l-7 -145 60 -59 60 -59 57 31 57 31 -7 -49 c-5 -34 -2 -67 10 -107 14 -50 27
-69 93 -134 99 -97 171 -134 262 -134 77 0 119 18 190 82 82 74 123 186 100
271 -20 77 -107 152 -175 152 -60 0 -159 -80 -190 -153 -31 -74 18 -145 90
-131 50 9 47 -18 -7 -56 -50 -37 -95 -39 -150 -8 -98 55 -91 169 20 329 70
102 160 187 266 253 102 64 159 84 183 64 21 -17 12 -86 -21 -160 l-25 -56 47
-17 c74 -26 187 -31 257 -10 184 53 353 236 386 418 38 213 -125 447 -312 447
-71 0 -150 -38 -236 -115 -79 -71 -103 -71 -103 1 0 59 46 107 152 158 79 37
118 84 118 141 0 42 -17 96 -29 94 -3 -1 -23 -10 -44 -21z"/>
<path d="M17490 18955 c0 -12 109 -75 140 -81 54 -11 142 -52 173 -82 46 -44
75 -101 97 -195 34 -149 24 -197 -67 -296 l-49 -55 -70 38 c-61 34 -131 81
-216 146 l-26 20 -56 -63 c-53 -61 -55 -65 -46 -98 7 -23 6 -58 -2 -111 -14
-96 -3 -143 47 -187 62 -54 158 -63 242 -23 21 10 101 91 200 202 98 108 176
188 191 192 37 11 71 47 82 89 21 78 -23 306 -72 379 -39 57 -66 70 -168 82
-52 6 -122 19 -154 29 -55 17 -246 28 -246 14z"/>
<path d="M18445 18212 c-17 -15 -48 -42 -69 -60 -36 -31 -37 -34 -22 -55 61
-84 85 -121 82 -124 -2 -2 -26 8 -54 22 -90 45 -183 31 -230 -36 -24 -34 -21
-132 5 -184 36 -68 99 -115 154 -115 30 0 69 44 69 79 0 17 -11 42 -26 60 -33
40 -15 40 30 1 98 -87 99 -218 1 -275 -41 -24 -43 -25 -88 -9 -97 33 -197 159
-197 247 0 29 -7 46 -29 68 -34 34 -50 36 -83 10 -43 -35 -80 -117 -86 -193
-4 -62 -2 -74 27 -133 51 -104 152 -175 247 -175 48 0 182 45 234 78 51 33 91
70 138 127 l32 39 42 -45 c24 -25 62 -77 84 -116 55 -92 156 -325 146 -335
-18 -18 -115 44 -205 132 -52 49 -97 90 -101 90 -3 0 -27 -19 -51 -41 -42 -39
-45 -45 -45 -93 0 -28 -9 -88 -21 -133 -22 -82 -22 -82 -2 -120 31 -60 91 -96
167 -101 86 -6 125 14 265 133 63 53 125 101 138 106 48 18 49 88 4 209 -25
66 -132 247 -195 328 -47 61 -60 68 -170 90 -37 7 -41 11 -54 57 -7 28 -14 84
-16 125 -2 57 -9 90 -30 137 -35 76 -32 89 13 65 48 -24 65 -51 112 -176 64
-170 74 -181 231 -263 96 -49 120 -76 138 -158 15 -65 73 -174 114 -214 41
-40 98 -51 144 -27 l32 16 -19 38 c-12 22 -26 88 -36 166 -9 71 -20 137 -26
147 -6 12 -42 28 -97 44 -209 63 -223 69 -242 114 -6 15 -17 87 -24 159 -15
154 -13 150 -146 208 -47 20 -114 51 -150 69 -95 47 -101 48 -135 17z"/>
<path d="M6585 18057 c-35 -19 -65 -22 -245 -28 -225 -7 -267 -16 -381 -75
-133 -70 -205 -155 -248 -298 -50 -163 -13 -249 143 -328 46 -23 79 -32 131
-36 62 -3 76 -1 124 25 91 47 150 157 135 247 -5 31 -17 51 -52 83 -74 68
-134 70 -204 5 -32 -31 -41 -46 -45 -83 -5 -41 -2 -50 28 -83 31 -36 32 -40
18 -64 -16 -29 -59 -47 -92 -38 -33 8 -59 60 -59 116 0 94 106 232 228 297
109 58 183 75 359 82 178 7 199 14 222 68 12 29 12 44 3 84 -7 27 -15 48 -18
48 -4 -1 -25 -11 -47 -22z"/>
<path d="M4120 17430 c-168 -36 -274 -93 -297 -160 -7 -19 -12 -78 -12 -131
-1 -56 -7 -117 -17 -148 -15 -52 -13 -142 5 -209 6 -23 9 -20 38 34 17 33 37
89 43 125 24 137 91 207 247 260 141 47 189 40 301 -44 42 -32 51 -44 46 -60
-17 -53 -67 -153 -113 -225 -28 -44 -51 -81 -51 -84 0 -2 29 -26 65 -52 61
-44 67 -47 97 -37 18 6 74 10 123 10 103 -2 131 7 168 51 57 68 59 177 3 259
-13 21 -108 99 -219 181 -152 113 -197 152 -206 178 -23 61 -97 79 -221 52z"/>
<path d="M19381 16825 c-57 -35 -108 -68 -114 -74 -6 -6 6 -35 32 -78 45 -75
77 -157 87 -222 20 -125 -51 -74 -210 152 l-48 67 -52 -29 c-44 -26 -53 -37
-69 -81 -41 -118 -45 -249 -12 -390 5 -20 3 -19 -8 6 -58 124 -182 172 -321
124 -142 -49 -254 -137 -276 -218 -21 -79 30 -191 103 -225 39 -19 114 -22
166 -7 47 13 109 76 117 116 13 69 -51 174 -106 174 -42 0 -59 -9 -75 -41 -26
-49 -13 -109 33 -162 23 -26 6 -33 -26 -11 -36 27 -82 118 -82 165 0 83 143
148 222 102 18 -11 41 -41 59 -79 26 -52 30 -72 32 -154 l2 -95 59 -35 c89
-54 98 -71 104 -189 4 -82 2 -105 -12 -125 -9 -15 -22 -23 -30 -20 -21 8 -100
112 -130 172 -14 28 -28 52 -31 52 -2 0 -29 -12 -60 -27 -49 -24 -55 -31 -55
-58 0 -16 -9 -50 -20 -74 -26 -56 -25 -90 3 -131 62 -92 121 -96 282 -19 61
29 128 56 149 59 26 3 45 13 57 30 37 50 49 245 19 301 -16 29 -117 96 -172
115 -32 10 -48 21 -44 29 19 50 46 152 46 174 0 17 12 -2 35 -58 67 -164 180
-326 273 -395 28 -20 76 -48 108 -64 53 -24 70 -27 159 -26 130 0 198 25 271
98 62 61 78 110 72 207 -4 55 -13 82 -54 158 -46 87 -48 93 -31 106 50 37 138
-37 157 -131 30 -144 67 -194 147 -201 64 -5 75 4 63 47 -11 38 -6 85 16 143
30 81 13 132 -57 168 -40 20 -249 79 -281 79 -14 0 -219 -117 -237 -135 -2 -2
13 -31 34 -64 47 -78 95 -210 95 -262 0 -50 -43 -99 -87 -99 -68 0 -196 94
-292 214 -134 168 -198 344 -161 441 l10 26 35 -26 c19 -15 55 -33 80 -41 39
-11 52 -11 78 0 71 30 112 111 105 206 -3 47 -15 82 -52 155 -27 52 -46 102
-42 110 7 19 49 19 86 0 37 -19 67 -69 81 -136 17 -86 40 -138 72 -165 25 -21
38 -24 86 -22 44 2 55 6 52 18 -14 57 -12 103 8 159 26 77 26 101 0 135 -31
39 -82 61 -217 96 -66 16 -122 30 -124 30 -2 0 -50 -29 -107 -65z"/>
<path d="M19448 16235 c-82 -45 -50 -209 58 -305 69 -60 120 -50 86 16 -29 57
-35 97 -21 143 16 54 -9 124 -51 146 -35 18 -38 18 -72 0z"/>
<path d="M3256 16055 c-209 -58 -398 -260 -475 -509 -34 -110 -36 -185 -12
-352 12 -82 24 -163 27 -180 4 -29 13 -36 100 -78 53 -25 99 -46 103 -46 4 0
13 12 20 28 20 44 115 183 161 235 54 61 80 63 80 5 0 -48 -34 -171 -74 -268
-14 -35 -24 -65 -23 -66 1 -1 26 -13 55 -28 47 -24 54 -25 75 -12 12 8 84 28
159 46 166 39 211 64 252 140 47 87 42 117 -44 261 -112 188 -122 242 -65 357
41 82 98 138 151 148 47 9 68 -4 72 -46 4 -39 -29 -80 -65 -80 -12 0 -37 -13
-54 -28 -27 -24 -33 -37 -37 -84 -9 -114 48 -159 163 -127 80 22 155 136 155
235 0 81 -21 136 -70 185 -81 81 -154 86 -283 17 -69 -37 -111 -83 -145 -158
-36 -78 -37 -220 -2 -378 l25 -113 -34 -27 c-19 -15 -56 -37 -82 -49 l-49 -22
6 72 c10 124 -27 184 -117 194 -50 5 -117 -19 -175 -64 -19 -14 -58 -62 -87
-105 -57 -88 -65 -87 -66 7 -1 105 35 226 118 401 69 144 116 219 177 284 86
92 224 163 224 115 0 -41 -33 -77 -93 -105 -34 -15 -70 -36 -79 -47 -29 -32
-48 -90 -48 -147 0 -66 20 -94 73 -103 111 -18 243 202 221 369 -16 116 -101
160 -238 123z"/>
<path d="M20232 15328 c-83 -33 -102 -44 -97 -57 31 -78 69 -296 59 -337 -7
-26 -16 -29 -45 -14 -21 12 -130 191 -155 257 -19 48 -21 49 -104 9 -51 -24
-94 -86 -126 -183 -29 -89 -27 -318 4 -432 55 -201 140 -316 284 -385 209 -99
488 -118 476 -33 -4 26 -23 36 -165 81 -221 69 -315 172 -374 406 -26 100 -22
205 8 265 l20 37 34 -40 c79 -92 151 -114 220 -66 58 40 84 109 83 214 -1 52
-8 102 -18 129 -9 24 -14 46 -12 49 20 19 126 -102 161 -183 5 -11 11 -110 15
-220 l5 -200 52 -106 c82 -167 164 -237 290 -247 85 -7 137 14 200 81 65 68
87 127 81 211 -13 158 -137 256 -227 180 -53 -44 -51 -119 4 -194 29 -39 32
-87 10 -129 -16 -32 -33 -41 -75 -41 -37 0 -94 55 -124 119 -31 68 -30 269 2
399 27 111 28 109 -77 211 -63 61 -296 262 -303 260 -2 0 -49 -19 -106 -41z"/>
<path d="M2122 14701 c-186 -150 -339 -333 -412 -495 -17 -36 -42 -107 -56
-157 -24 -81 -26 -103 -22 -217 3 -105 8 -134 26 -169 40 -78 112 -113 189
-94 90 23 123 68 123 166 0 32 7 104 16 162 34 230 108 403 224 524 59 61 71
79 85 134 24 88 17 157 -20 195 -16 17 -34 30 -42 30 -7 0 -57 -36 -111 -79z
m67 -170 c-8 -10 -36 -47 -62 -82 -65 -87 -138 -234 -176 -351 -32 -100 -61
-254 -61 -320 0 -34 -3 -38 -25 -38 -68 0 -79 118 -27 293 60 203 155 351 302
471 61 50 69 55 49 27z"/>
<path d="M2546 14542 c-14 -27 -78 -90 -174 -170 -62 -51 -66 -78 -27 -174 14
-34 32 -97 41 -140 15 -74 15 -80 -3 -110 -10 -18 -65 -72 -121 -121 -101 -87
-102 -89 -102 -133 0 -44 68 -248 114 -343 l21 -45 104 -28 c58 -15 106 -26
108 -25 1 2 34 109 73 238 122 402 235 653 346 766 69 71 100 80 132 38 75
-95 -15 -610 -158 -898 -34 -69 -49 -89 -81 -107 -44 -24 -69 -16 -69 24 1 26
14 43 63 80 62 45 77 79 77 168 0 68 -3 80 -26 107 -43 51 -102 37 -168 -41
-95 -111 -101 -328 -11 -407 43 -37 71 -45 138 -38 151 16 260 102 340 268 87
178 123 354 115 553 -9 207 -71 346 -179 400 -94 47 -163 28 -267 -72 -96 -94
-160 -232 -312 -677 -50 -146 -79 -218 -96 -235 l-25 -25 -30 35 c-35 42 -46
90 -28 132 7 17 41 73 75 124 92 137 93 143 68 365 -7 66 3 91 77 182 66 81
90 128 95 191 6 60 -17 106 -65 131 -30 15 -31 15 -45 -13z"/>
<path d="M20753 14098 c13 -51 37 -96 77 -144 22 -27 52 -73 67 -102 22 -46
25 -61 20 -120 -7 -95 -58 -223 -111 -277 -42 -44 -107 -71 -186 -77 -34 -3
-36 -2 -76 79 -23 45 -54 121 -69 168 -15 47 -31 85 -34 85 -3 0 -22 -4 -41
-9 -19 -6 -53 -14 -75 -20 -33 -9 -43 -17 -53 -45 -7 -19 -37 -62 -67 -95 -86
-97 -95 -172 -28 -252 35 -41 116 -79 170 -79 23 0 142 24 265 54 187 46 234
54 284 49 53 -5 63 -3 89 20 34 28 114 174 140 257 24 72 25 158 3 192 -9 14
-50 54 -91 89 -41 35 -89 85 -107 111 -21 31 -57 62 -107 93 -70 43 -75 44
-70 23z"/>
<path d="M2037 11962 c-202 -202 -367 -374 -367 -382 0 -20 730 -750 750 -750
20 0 750 730 750 750 0 20 -730 750 -750 750 -8 0 -180 -165 -383 -368z m513
164 c0 -5 -22 -33 -50 -62 -32 -34 -48 -58 -44 -68 11 -28 37 -17 91 36 l53
52 70 -69 70 -70 -107 -107 c-106 -106 -106 -107 -134 -92 -36 18 -110 18
-153 0 l-33 -14 -104 104 -104 104 67 67 68 68 49 -49 c31 -30 55 -47 67 -44
36 6 28 39 -22 89 l-48 49 69 70 69 70 63 -62 c35 -34 63 -67 63 -72z m-384
-337 l102 -102 -14 -33 c-18 -43 -18 -105 0 -148 l14 -33 -104 -104 -104 -104
-67 67 -68 68 49 49 c50 50 58 83 22 89 -12 3 -36 -14 -67 -44 l-49 -49 -68
68 -67 67 67 67 67 67 55 -52 c36 -34 60 -50 70 -46 29 11 17 47 -31 96 l-47
48 64 65 c35 36 67 65 70 65 2 0 50 -46 106 -101z m687 43 c31 -32 57 -62 57
-68 0 -5 -20 -30 -45 -54 -30 -29 -45 -52 -43 -65 6 -38 38 -29 92 24 l52 51
69 -70 69 -70 -64 -65 c-35 -36 -69 -65 -74 -65 -6 0 -33 23 -61 50 -36 36
-56 49 -68 44 -29 -11 -19 -36 35 -91 l52 -53 -64 -65 c-35 -36 -69 -65 -75
-65 -6 0 -56 46 -112 103 -99 99 -102 103 -88 127 8 14 14 50 14 80 0 30 -6
66 -14 80 -14 24 -11 28 88 128 56 56 106 102 112 102 6 0 36 -26 68 -58z
m-348 -167 c31 -31 35 -42 35 -85 0 -43 -4 -54 -35 -85 -29 -28 -43 -35 -76
-35 -76 0 -129 49 -129 120 0 71 51 119 127 120 35 0 48 -6 78 -35z m-78 -265
c26 1 59 7 73 15 24 14 28 11 132 -93 l108 -107 -62 -62 c-34 -35 -67 -63 -73
-63 -6 0 -31 20 -55 45 -29 30 -52 45 -65 43 -38 -6 -29 -38 24 -92 l51 -52
-68 -67 -68 -67 -69 70 -69 70 52 53 c37 38 51 58 46 70 -11 29 -36 19 -89
-33 l-51 -50 -69 70 -70 70 104 104 104 104 33 -14 c18 -8 55 -14 81 -14z"/>
<path d="M20440 11958 c-201 -204 -365 -374 -365 -379 0 -12 737 -749 750
-749 13 0 750 737 750 750 0 17 -739 750 -755 749 -8 0 -179 -167 -380 -371z
m471 108 c-36 -36 -52 -60 -48 -70 11 -28 41 -17 87 29 24 25 49 45 55 45 6 0
40 -29 75 -65 l65 -65 -106 -106 -105 -105 -30 15 c-16 9 -51 16 -79 16 -27 0
-63 -7 -79 -16 l-30 -15 -105 105 -106 106 70 70 69 70 52 -51 c54 -53 86 -62
92 -24 2 13 -15 37 -48 70 l-50 49 67 68 68 68 70 -70 70 -70 -54 -54z m-255
-415 c-20 -52 -20 -90 0 -142 l17 -41 -99 -99 c-54 -54 -103 -99 -109 -99 -6
0 -40 29 -75 65 l-64 65 54 55 c45 45 53 58 44 72 -19 30 -33 25 -89 -28 l-56
-53 -67 67 -67 67 70 70 69 70 51 -50 c52 -51 81 -62 92 -34 4 10 -12 34 -48
70 l-53 54 69 70 70 70 104 -104 104 -104 -17 -41z m614 54 c-45 -45 -53 -58
-44 -72 19 -30 33 -25 89 28 l56 53 67 -67 67 -67 -70 -70 -69 -70 -51 50
c-52 51 -81 62 -92 34 -4 -10 12 -34 48 -70 l54 -54 -70 -70 -70 -70 -104 104
-103 103 16 47 c9 26 16 55 16 66 0 11 -7 40 -16 66 l-16 47 103 103 104 104
70 -70 70 -70 -55 -55z m-362 -39 c34 -31 37 -39 37 -86 0 -47 -3 -55 -37 -86
-31 -28 -45 -34 -83 -34 -38 0 -52 6 -83 34 -34 31 -37 39 -37 86 0 47 3 55
37 86 31 28 45 34 83 34 38 0 52 -6 83 -34z m-162 -251 c38 -20 117 -19 156 1
l31 16 106 -106 106 -106 -70 -70 -69 -70 -52 51 c-53 53 -85 61 -92 25 -3
-12 14 -37 47 -70 l51 -52 -68 -67 -68 -67 -69 70 -69 70 53 54 c36 36 52 60
48 70 -11 28 -41 17 -87 -29 -24 -25 -49 -45 -55 -45 -6 0 -40 29 -75 65 l-65
65 105 105 c58 58 105 105 106 105 1 0 15 -7 30 -15z"/>
<path d="M20032 10118 c-51 -188 -144 -559 -141 -561 5 -4 1006 -264 1034
-269 17 -3 27 25 97 292 43 162 76 299 75 305 -2 5 -42 19 -89 31 l-85 21 -58
-224 c-55 -211 -60 -224 -79 -219 -12 4 -75 20 -141 37 -66 17 -121 32 -122
33 -1 1 20 87 47 192 27 104 50 194 50 200 0 10 -136 54 -166 54 -5 0 -31 -87
-58 -192 -27 -106 -52 -196 -55 -200 -6 -6 -218 46 -228 56 -3 3 75 323 102
416 4 12 -11 20 -63 33 -37 10 -77 20 -89 23 -18 5 -23 0 -31 -28z"/>
<path d="M2609 9898 l-516 -130 20 -79 c11 -43 25 -79 31 -79 19 1 1037 258
1043 263 3 3 -3 40 -13 81 -13 56 -22 76 -33 75 -9 0 -248 -59 -532 -131z"/>
<path d="M2700 9574 c-272 -85 -500 -156 -507 -158 -15 -6 25 -146 42 -146 7
0 158 45 336 100 178 54 324 98 326 97 1 -1 -119 -112 -266 -245 -148 -134
-277 -252 -287 -263 -17 -19 -17 -22 6 -94 13 -41 28 -75 34 -75 8 0 1023 309
1033 315 7 3 -42 145 -50 145 -6 0 -157 -45 -335 -100 -178 -56 -328 -100
-332 -98 -6 2 318 301 527 485 l47 41 -24 76 c-17 54 -28 76 -39 75 -9 -1
-239 -70 -511 -155z"/>
<path d="M19937 9326 c-185 -50 -292 -288 -217 -481 18 -47 40 -77 104 -141
67 -67 98 -89 177 -128 282 -137 567 -126 706 27 107 119 132 313 61 479 l-20
46 -205 71 c-113 39 -208 70 -210 67 -2 -2 -30 -78 -62 -169 l-58 -166 88 -30
87 -29 32 90 c19 53 37 88 44 85 6 -2 35 -12 64 -22 46 -14 56 -23 70 -54 8
-20 15 -65 16 -101 1 -111 -54 -181 -164 -210 -133 -35 -420 59 -512 168 -115
136 -36 332 134 332 31 0 48 4 49 13 0 6 3 44 7 84 l8 71 -29 6 c-46 9 -118 6
-170 -8z"/>
<path d="M3197 8876 c-68 -28 -116 -63 -153 -111 -43 -57 -54 -113 -54 -286 0
-155 0 -158 -26 -188 -88 -105 -256 -23 -256 126 0 55 35 111 92 149 22 15 40
30 40 35 0 5 -16 38 -36 74 l-36 65 -51 -27 c-60 -33 -147 -115 -171 -161 -26
-49 -35 -120 -25 -182 12 -79 71 -191 122 -235 89 -76 229 -85 362 -22 92 44
146 93 176 160 22 47 24 66 25 207 1 205 0 197 33 231 61 61 155 19 185 -81
23 -77 -3 -135 -80 -178 -12 -7 -9 -20 22 -85 l36 -76 40 20 c55 28 125 95
151 144 17 31 22 57 21 120 0 139 -64 253 -168 301 -70 33 -169 33 -249 0z"/>
<path d="M19620 8485 c-71 -20 -118 -52 -153 -103 -40 -56 -180 -373 -170
-382 8 -8 976 -440 985 -440 3 0 41 80 84 178 79 176 79 177 79 262 0 101 -18
143 -99 228 -171 182 -534 310 -726 257z m285 -192 c106 -38 239 -110 294
-159 55 -49 76 -97 66 -147 -9 -40 -75 -197 -84 -197 -3 0 -151 64 -328 142
-192 85 -323 148 -323 156 0 26 92 191 114 206 62 40 144 40 261 -1z"/>
<path d="M3638 8299 c-43 -22 -78 -44 -78 -49 0 -6 23 -56 51 -111 27 -56 49
-102 47 -104 -2 -1 -184 -89 -405 -195 -284 -136 -403 -198 -403 -209 1 -9 15
-44 33 -77 l32 -62 403 194 c222 107 407 194 411 194 5 0 30 -47 57 -105 27
-58 52 -105 55 -105 14 0 159 73 159 80 0 9 -270 572 -279 582 -3 3 -41 -11
-83 -33z"/>
<path d="M19267 7749 c-103 -24 -197 -103 -245 -207 -23 -49 -27 -70 -27 -147
0 -86 2 -94 39 -163 134 -250 544 -448 782 -377 196 58 306 279 234 468 -29
77 -100 169 -180 234 -78 64 -280 166 -371 187 -70 17 -171 19 -232 5z m253
-192 c128 -46 281 -152 329 -230 52 -84 45 -183 -18 -246 -81 -81 -213 -81
-376 1 -192 97 -283 205 -273 324 12 149 159 214 338 151z"/>
<path d="M3575 7417 c-253 -139 -466 -256 -473 -260 -9 -6 -3 -25 25 -78 21
-38 41 -69 46 -69 7 0 885 476 934 506 l22 14 -37 67 c-20 36 -41 68 -47 69
-5 1 -217 -111 -470 -249z"/>
<path d="M4078 7407 c-38 -23 -68 -45 -68 -49 0 -4 27 -51 60 -105 47 -77 57
-100 48 -109 -7 -6 -177 -112 -378 -234 -201 -123 -369 -226 -373 -230 -9 -8
70 -140 83 -140 4 0 177 104 383 230 207 127 379 230 384 230 5 0 35 -44 68
-97 32 -54 60 -100 61 -102 7 -8 155 92 152 103 -7 29 -331 546 -341 545 -7 0
-42 -19 -79 -42z"/>
<path d="M18764 7002 c-53 -25 -93 -74 -222 -265 -91 -136 -104 -159 -91 -171
19 -18 863 -584 881 -591 11 -4 51 48 135 177 152 231 157 240 157 308 0 77
-34 147 -100 210 -99 94 -207 126 -306 93 l-58 -20 0 22 c0 38 -59 143 -98
173 -97 76 -216 102 -298 64z m169 -176 c50 -20 87 -70 87 -115 0 -30 -14 -60
-66 -139 l-66 -101 -105 70 -104 70 17 27 c45 70 136 191 147 195 23 10 58 7
90 -7z m424 -245 c97 -71 98 -109 2 -257 -39 -60 -73 -110 -74 -112 -2 -2 -58
33 -124 78 l-122 81 62 89 c81 119 117 150 173 150 32 0 54 -8 83 -29z"/>
<path d="M4249 6618 c-421 -306 -473 -362 -474 -508 0 -62 5 -85 28 -131 60
-124 154 -198 261 -206 81 -7 139 12 250 82 108 67 616 435 616 445 0 4 -20
35 -45 69 -30 40 -50 59 -58 54 -7 -4 -131 -93 -277 -199 -308 -222 -351 -251
-403 -265 -102 -27 -206 85 -177 192 17 62 72 110 388 338 155 113 282 208
282 212 0 8 -88 129 -94 129 -3 0 -136 -96 -297 -212z"/>
<path d="M18286 6378 c-41 -51 -76 -97 -77 -101 0 -5 106 -137 236 -294 131
-157 229 -283 220 -279 -10 4 -159 81 -332 171 -172 91 -315 165 -317 165 -13
0 -157 -193 -150 -200 45 -43 839 -678 844 -675 4 2 27 30 51 61 37 48 41 58
28 68 -58 42 -618 501 -615 503 1 1 166 -85 367 -193 l364 -196 43 49 c23 26
47 55 51 63 7 11 -54 89 -241 310 -255 302 -309 370 -272 339 27 -23 607 -491
619 -500 13 -10 110 110 99 121 -5 4 -189 153 -409 330 -220 178 -407 329
-416 337 -15 13 -25 5 -93 -79z"/>
<path d="M4925 6178 c-33 -27 -64 -54 -69 -58 -5 -5 25 -48 68 -98 42 -50 76
-94 75 -99 0 -4 -153 -138 -340 -296 -186 -158 -339 -291 -339 -295 0 -4 24
-33 53 -65 l52 -58 340 290 c187 160 345 290 350 290 6 0 43 -40 84 -89 l74
-90 36 30 c108 88 106 86 91 106 -38 48 -402 474 -409 478 -4 3 -34 -18 -66
-46z"/>
<path d="M17529 5507 l-56 -62 266 -475 c147 -261 272 -484 278 -495 11 -19
16 -16 74 42 l62 62 -61 106 c-34 59 -62 112 -62 119 0 6 51 62 113 124 l113
112 113 -61 114 -61 63 63 c35 35 60 66 56 70 -14 13 -996 519 -1006 519 -6
-1 -36 -29 -67 -63z m453 -320 c54 -28 98 -54 98 -57 0 -3 -35 -40 -77 -82
l-78 -77 -85 146 c-47 81 -93 162 -103 180 l-18 34 83 -46 c46 -25 127 -69
180 -98z"/>
<path d="M5344 5098 c-181 -194 -348 -373 -371 -398 l-42 -46 134 -124 c84
-78 159 -138 197 -158 58 -31 69 -34 139 -30 65 3 87 9 160 45 139 69 287 211
381 365 59 95 81 162 82 248 1 113 -18 144 -190 308 -79 75 -148 138 -153 140
-4 1 -156 -156 -337 -350z m397 45 c87 -83 102 -112 97 -182 -6 -84 -51 -154
-183 -286 -120 -121 -175 -155 -247 -155 -49 0 -76 16 -177 107 l-53 49 243
261 c134 144 248 262 252 263 5 0 35 -26 68 -57z"/>
<path d="M17090 5071 c-53 -17 -113 -54 -151 -92 -168 -168 -102 -465 159
-724 212 -210 438 -253 597 -113 119 105 137 266 49 440 l-24 47 -77 -26 c-43
-14 -79 -27 -81 -28 -1 -1 10 -28 24 -60 35 -76 38 -161 8 -201 -34 -46 -70
-67 -123 -72 -41 -4 -61 1 -108 23 -113 55 -300 274 -333 389 -48 174 113 299
261 202 22 -15 42 -26 44 -24 1 2 22 34 45 73 l42 69 -23 19 c-13 11 -53 33
-87 50 -67 31 -172 45 -222 28z"/>
<path d="M6043 4628 c-121 -156 -273 -349 -336 -429 l-115 -146 244 -192 c134
-105 248 -191 252 -191 10 0 117 139 111 144 -2 1 -78 61 -169 131 -91 70
-171 133 -178 140 -10 9 6 34 74 121 47 60 92 109 99 109 8 0 84 -55 169 -122
l156 -122 55 70 c30 39 53 75 50 79 -3 4 -75 62 -160 129 -85 67 -155 124
-155 126 0 7 141 185 146 185 3 0 66 -49 142 -108 75 -59 153 -120 174 -135
l36 -28 57 71 c48 60 55 74 44 84 -24 22 -460 361 -467 364 -4 1 -107 -125
-229 -280z"/>
<path d="M16280 4444 c-30 -20 -59 -40 -64 -44 -4 -5 77 -138 182 -297 104
-158 203 -313 221 -344 35 -63 41 -121 16 -169 -22 -42 -92 -80 -147 -80 -82
0 -107 27 -335 373 -113 172 -209 316 -214 321 -8 9 -139 -70 -139 -85 0 -14
385 -590 437 -654 120 -148 245 -187 387 -121 77 35 147 96 181 157 25 46 30
65 30 125 0 66 -4 79 -52 175 -52 104 -425 679 -440 679 -5 0 -33 -16 -63 -36z"/>
<path d="M7005 4244 c-25 -42 -43 -79 -40 -83 4 -3 48 -31 98 -62 56 -34 92
-62 91 -72 -1 -8 -103 -182 -228 -386 -124 -203 -226 -374 -226 -378 0 -4 30
-26 66 -47 55 -33 67 -37 78 -25 8 8 115 181 240 386 l227 371 104 -64 105
-64 23 38 c46 72 72 121 67 125 -9 8 -551 337 -555 337 -2 0 -24 -34 -50 -76z"/>
<path d="M7436 3452 l-244 -488 274 -137 c151 -75 279 -137 284 -137 5 0 28
36 50 80 l40 80 -202 101 c-112 56 -205 103 -208 105 -4 4 121 264 127 264 2
0 84 -40 183 -90 99 -49 182 -90 185 -90 3 0 23 36 45 80 l40 80 -182 91
c-101 50 -184 93 -186 94 -3 2 95 204 103 213 2 2 93 -42 204 -97 l201 -101
40 80 c22 44 40 82 40 85 0 5 -535 275 -545 275 -3 0 -115 -220 -249 -488z"/>
<path d="M15448 3925 c-57 -21 -348 -177 -348 -186 0 -7 496 -946 506 -958 1
-1 78 37 169 85 242 130 285 179 293 335 6 112 -21 219 -88 353 -126 249 -282
387 -435 385 -33 0 -77 -7 -97 -14z m207 -209 c75 -57 194 -254 231 -384 24
-81 15 -155 -22 -192 -32 -32 -185 -121 -195 -114 -5 3 -267 491 -331 616 -7
15 6 25 79 63 79 40 94 45 145 42 43 -2 65 -10 93 -31z"/>
<path d="M14418 3463 c-153 -58 -278 -111 -278 -118 0 -15 369 -998 378 -1006
4 -4 138 43 298 103 l291 109 -31 85 c-17 46 -35 84 -41 84 -5 0 -104 -36
-218 -79 l-208 -80 -10 27 c-62 161 -89 238 -85 247 2 6 88 42 190 80 102 38
186 73 186 76 0 4 -14 43 -31 88 l-30 80 -77 -28 c-42 -16 -130 -49 -195 -74
-80 -31 -120 -42 -122 -34 -3 7 -21 54 -40 106 -20 52 -34 100 -31 106 2 6 94
45 205 86 110 40 201 77 201 81 0 15 -62 168 -68 167 -4 -1 -132 -48 -284
-106z"/>
<path d="M8448 3511 c-74 -29 -113 -57 -177 -128 -69 -74 -144 -212 -187 -343
-25 -76 -28 -99 -29 -220 0 -125 2 -139 26 -190 37 -79 81 -125 156 -162 55
-27 78 -32 137 -33 61 0 81 5 138 33 63 31 125 87 178 162 l19 27 -63 62 -63
62 -41 -54 c-74 -98 -153 -127 -231 -85 -120 64 -122 241 -6 485 70 148 144
213 243 213 95 0 157 -69 157 -177 l0 -62 50 -6 c28 -4 66 -5 85 -3 l35 3 3
86 c4 116 -21 183 -93 255 -42 42 -65 56 -120 73 -82 26 -155 26 -217 2z"/>
<path d="M9075 3318 c-13 -38 -285 -1016 -285 -1026 0 -6 19 -16 43 -22 23 -6
57 -16 75 -22 18 -5 35 -8 36 -6 2 1 32 104 66 228 34 124 63 226 64 227 2 2
307 -85 311 -89 3 -2 -24 -105 -59 -228 -43 -154 -60 -227 -52 -232 17 -10
145 -43 149 -38 2 3 68 234 146 514 79 281 145 515 147 521 5 13 -147 59 -157
47 -4 -4 -31 -92 -59 -197 -29 -104 -56 -194 -60 -198 -10 -11 -310 75 -310
89 0 6 25 99 55 205 30 106 51 196 47 200 -8 7 -123 39 -140 39 -7 0 -15 -6
-17 -12z"/>
<path d="M13913 3291 c-29 -9 -55 -20 -59 -24 -4 -4 64 -240 151 -526 l157
-519 75 23 c41 13 77 25 79 28 2 2 -66 236 -153 520 -176 579 -151 530 -250
498z"/>
<path d="M13367 3165 c-75 -19 -109 -38 -164 -88 -90 -82 -142 -245 -129 -402
15 -188 89 -382 185 -487 159 -174 409 -174 588 -1 103 99 101 88 46 330 -25
115 -48 210 -49 212 -3 3 -334 -68 -345 -75 -3 -2 3 -43 14 -92 l20 -88 89 20
c102 23 98 24 117 -60 12 -53 12 -56 -13 -88 -35 -47 -110 -94 -160 -101 -66
-10 -122 10 -175 63 -86 86 -143 247 -144 412 -1 98 15 150 62 204 41 46 130
73 190 56 40 -10 104 -63 127 -105 11 -19 14 -19 88 18 l76 37 -26 51 c-79
156 -230 226 -397 184z"/>
<path d="M9846 3111 c-12 -40 -188 -1053 -184 -1057 3 -2 37 -11 76 -18 l71
-13 5 26 c3 14 31 168 61 341 31 173 58 316 60 318 2 2 8 -13 14 -34 36 -137
165 -618 177 -660 l15 -52 80 -12 c44 -7 81 -11 83 -9 7 9 187 1050 184 1061
-4 10 -137 42 -144 35 -2 -1 -31 -161 -65 -354 -35 -194 -64 -351 -66 -350 -1
2 -48 174 -104 383 -55 208 -101 380 -102 381 -1 1 -37 8 -79 16 -71 13 -78
13 -82 -2z"/>
<path d="M12455 3007 c-133 -44 -199 -115 -251 -267 -29 -83 -26 -353 4 -465
44 -160 134 -295 230 -344 65 -33 151 -45 228 -32 167 29 267 136 310 330 22
97 14 290 -15 406 -44 171 -136 301 -250 353 -67 31 -192 40 -256 19z m178
-186 c73 -28 134 -118 164 -238 21 -88 23 -283 4 -338 -33 -94 -90 -148 -168
-161 -127 -20 -235 101 -270 305 -18 101 -13 248 9 302 21 48 76 109 113 125
35 16 113 18 148 5z"/>
<path d="M10871 2974 c-70 -19 -107 -42 -164 -103 -75 -81 -118 -183 -142
-341 -47 -305 35 -550 213 -637 80 -39 211 -45 297 -12 117 44 209 167 256
344 30 111 33 361 6 450 -55 176 -155 277 -301 304 -75 14 -98 13 -165 -5z
m154 -185 c54 -15 118 -82 141 -150 25 -72 25 -265 0 -359 -22 -83 -63 -156
-110 -194 -29 -24 -49 -31 -96 -34 -36 -3 -72 1 -90 8 -47 19 -105 92 -126
157 -34 108 -17 350 31 443 39 76 123 139 185 140 14 0 43 -5 65 -11z"/>
<path d="M11541 2933 l-54 -4 6 -172 c4 -95 10 -337 13 -539 l7 -368 76 0 c42
0 174 3 294 7 l217 6 0 62 c0 35 -3 75 -6 91 l-5 29 -204 -4 -203 -3 -6 83
c-3 46 -9 249 -12 452 l-6 367 -32 -2 c-17 -1 -55 -3 -85 -5z"/>
</g>
</svg>
